STARTFONT 2.1
FONT -Adobe-Times-Medium-R-Normal--14-140-75-75-P-74-iso10646-0400
SIZE 14 75 75
FONTBOUNDINGBOX 15 17 -1 -3
COMMENT $XConsortium: timR14.bdf,v 1.14 95/01/26 18:07:23 gildea Exp $
COMMENT 
COMMENT +
COMMENT  Copyright 1984-1989, 1994 Adobe Systems Incorporated.
COMMENT  Copyright 1988, 1994 Digital Equipment Corporation.
COMMENT
COMMENT  Adobe is a trademark of Adobe Systems Incorporated which may be
COMMENT  registered in certain jurisdictions.
COMMENT  Permission to use these trademarks is hereby granted only in
COMMENT  association with the images described in this file.
COMMENT
COMMENT  Permission to use, copy, modify, distribute and sell this software
COMMENT  and its documentation for any purpose and without fee is hereby
COMMENT  granted, provided that the above copyright notices appear in all
COMMENT  copies and that both those copyright notices and this permission
COMMENT  notice appear in supporting documentation, and that the names of
COMMENT  Adobe Systems and Digital Equipment Corporation not be used in
COMMENT  advertising or publicity pertaining to distribution of the software
COMMENT  without specific, written prior permission.  Adobe Systems and
COMMENT  Digital Equipment Corporation make no representations about the
COMMENT  suitability of this software for any purpose.  It is provided "as
COMMENT  is" without express or implied warranty.
COMMENT -
STARTPROPERTIES 32
FOUNDRY "Adobe"
FAMILY_NAME "Times"
WEIGHT_NAME "Medium"
SLANT "R"
SETWIDTH_NAME "Normal"
ADD_STYLE_NAME ""
PIXEL_SIZE 14
POINT_SIZE 140
RESOLUTION_X 75
RESOLUTION_Y 75
SPACING "P"
AVERAGE_WIDTH 74
CHARSET_REGISTRY "iso10646"
CHARSET_ENCODING "0400"
CAP_HEIGHT 10
X_HEIGHT 7
FONT_ASCENT 12
FONT_DESCENT 3
FACE_NAME "Times Roman"
COPYRIGHT "Copyright (c) 1984, 1987 Adobe Systems Incorporated. All Rights Reserved. Copyright (c) 1988, 1991 Digital Equipment Corporation. All Rights Reserved."
NOTICE "Times is a trademark of Linotype-Hell AG and/or its subsidiaries."

STARTCHAR space
ENCODING 32
SWIDTH 205 0
DWIDTH 3 0
BBX 0 0 0 0
BITMAP
ENDCHAR
STARTCHAR exclam
ENCODING 33
SWIDTH 342 0
DWIDTH 5 0
BBX 1 10 2 0
BITMAP
80
80
80
80
80
80
80
00
80
80
ENDCHAR
STARTCHAR quotedbl
ENCODING 34
SWIDTH 411 0
DWIDTH 6 0
BBX 3 3 1 7
BITMAP
A0
A0
A0
ENDCHAR
STARTCHAR numbersign
ENCODING 35
SWIDTH 480 0
DWIDTH 7 0
BBX 7 10 0 0
BITMAP
14
14
7E
28
28
28
FC
50
50
50
ENDCHAR
STARTCHAR dollar
ENCODING 36
SWIDTH 480 0
DWIDTH 7 0
BBX 5 12 1 -1
BITMAP
20
78
A8
A0
A0
70
28
28
28
A8
F0
20
ENDCHAR
STARTCHAR percent
ENCODING 37
SWIDTH 822 0
DWIDTH 12 0
BBX 9 10 1 0
BITMAP
7180
DF00
9200
9400
6C00
0B00
1680
2480
6480
4300
ENDCHAR
STARTCHAR ampersand
ENCODING 38
SWIDTH 754 0
DWIDTH 11 0
BBX 10 10 1 0
BITMAP
1800
2400
2400
3800
1380
7900
CA00
8400
CE40
7380
ENDCHAR
STARTCHAR quotesingle
ENCODING 39
SWIDTH 205 0
DWIDTH 3 0
BBX 1 3 1 7
BITMAP
80
80
80
ENDCHAR
STARTCHAR parenleft
ENCODING 40
SWIDTH 342 0
DWIDTH 5 0
BBX 3 13 1 -3
BITMAP
20
20
40
40
80
80
80
80
80
40
40
20
20
ENDCHAR
STARTCHAR parenright
ENCODING 41
SWIDTH 342 0
DWIDTH 5 0
BBX 3 13 1 -3
BITMAP
80
80
40
40
20
20
20
20
20
40
40
80
80
ENDCHAR
STARTCHAR asterisk
ENCODING 42
SWIDTH 480 0
DWIDTH 7 0
BBX 5 6 1 4
BITMAP
20
A8
70
70
A8
20
ENDCHAR
STARTCHAR plus
ENCODING 43
SWIDTH 548 0
DWIDTH 8 0
BBX 7 7 0 0
BITMAP
10
10
10
FE
10
10
10
ENDCHAR
STARTCHAR comma
ENCODING 44
SWIDTH 205 0
DWIDTH 3 0
BBX 2 4 0 -2
BITMAP
40
40
40
80
ENDCHAR
STARTCHAR minus
ENCODING 45
SWIDTH 617 0
DWIDTH 9 0
BBX 7 1 1 3
BITMAP
FE
ENDCHAR
STARTCHAR period
ENCODING 46
SWIDTH 205 0
DWIDTH 3 0
BBX 1 2 1 0
BITMAP
80
80
ENDCHAR
STARTCHAR slash
ENCODING 47
SWIDTH 274 0
DWIDTH 4 0
BBX 5 12 -1 -2
BITMAP
08
08
10
10
10
20
20
20
40
40
80
80
ENDCHAR
STARTCHAR zero
ENCODING 48
SWIDTH 480 0
DWIDTH 7 0
BBX 6 10 0 0
BITMAP
78
CC
84
84
84
84
84
84
CC
78
ENDCHAR
STARTCHAR one
ENCODING 49
SWIDTH 480 0
DWIDTH 7 0
BBX 5 10 1 0
BITMAP
20
E0
20
20
20
20
20
20
20
F8
ENDCHAR
STARTCHAR two
ENCODING 50
SWIDTH 480 0
DWIDTH 7 0
BBX 6 10 0 0
BITMAP
70
D8
88
08
18
10
20
40
C4
FC
ENDCHAR
STARTCHAR three
ENCODING 51
SWIDTH 480 0
DWIDTH 7 0
BBX 6 10 0 0
BITMAP
78
CC
84
08
30
08
04
04
CC
78
ENDCHAR
STARTCHAR four
ENCODING 52
SWIDTH 480 0
DWIDTH 7 0
BBX 6 10 0 0
BITMAP
08
18
18
28
68
48
88
FC
08
08
ENDCHAR
STARTCHAR five
ENCODING 53
SWIDTH 480 0
DWIDTH 7 0
BBX 5 10 1 0
BITMAP
78
70
80
E0
B0
18
08
08
90
E0
ENDCHAR
STARTCHAR six
ENCODING 54
SWIDTH 480 0
DWIDTH 7 0
BBX 6 10 0 0
BITMAP
0C
18
20
40
78
CC
84
84
CC
78
ENDCHAR
STARTCHAR seven
ENCODING 55
SWIDTH 480 0
DWIDTH 7 0
BBX 6 10 0 0
BITMAP
FC
84
08
08
10
10
20
20
40
40
ENDCHAR
STARTCHAR eight
ENCODING 56
SWIDTH 480 0
DWIDTH 7 0
BBX 5 10 1 0
BITMAP
70
D8
88
C8
70
98
88
88
D8
70
ENDCHAR
STARTCHAR nine
ENCODING 57
SWIDTH 480 0
DWIDTH 7 0
BBX 6 10 0 0
BITMAP
78
CC
84
84
CC
78
08
10
60
C0
ENDCHAR
STARTCHAR colon
ENCODING 58
SWIDTH 274 0
DWIDTH 4 0
BBX 1 7 1 0
BITMAP
80
80
00
00
00
80
80
ENDCHAR
STARTCHAR semicolon
ENCODING 59
SWIDTH 274 0
DWIDTH 4 0
BBX 2 9 0 -2
BITMAP
40
40
00
00
00
40
40
40
80
ENDCHAR
STARTCHAR less
ENCODING 60
SWIDTH 548 0
DWIDTH 8 0
BBX 7 7 0 0
BITMAP
06
18
60
C0
60
18
06
ENDCHAR
STARTCHAR equal
ENCODING 61
SWIDTH 548 0
DWIDTH 8 0
BBX 7 3 0 2
BITMAP
FE
00
FE
ENDCHAR
STARTCHAR greater
ENCODING 62
SWIDTH 548 0
DWIDTH 8 0
BBX 7 7 0 0
BITMAP
C0
30
0C
06
0C
30
C0
ENDCHAR
STARTCHAR question
ENCODING 63
SWIDTH 411 0
DWIDTH 6 0
BBX 5 10 0 0
BITMAP
70
88
88
08
10
20
20
00
20
20
ENDCHAR
STARTCHAR at
ENCODING 64
SWIDTH 891 0
DWIDTH 13 0
BBX 12 12 0 -2
BITMAP
0F80
3060
6020
4690
8910
9110
9110
9320
CDC0
4000
30C0
0F00
ENDCHAR
STARTCHAR A
ENCODING 65
SWIDTH 754 0
DWIDTH 11 0
BBX 9 10 1 0
BITMAP
0800
0800
1400
1400
2200
2200
3E00
4100
4100
E380
ENDCHAR
STARTCHAR B
ENCODING 66
SWIDTH 617 0
DWIDTH 9 0
BBX 7 10 1 0
BITMAP
FC
46
42
46
7C
46
42
42
46
FC
ENDCHAR
STARTCHAR C
ENCODING 67
SWIDTH 685 0
DWIDTH 10 0
BBX 8 10 1 0
BITMAP
3D
63
C1
81
80
80
80
C1
62
3C
ENDCHAR
STARTCHAR D
ENCODING 68
SWIDTH 685 0
DWIDTH 10 0
BBX 9 10 0 0
BITMAP
FE00
2300
2100
2080
2080
2080
2080
2100
2300
FE00
ENDCHAR
STARTCHAR E
ENCODING 69
SWIDTH 617 0
DWIDTH 9 0
BBX 7 10 1 0
BITMAP
FE
42
40
44
7C
44
40
40
42
FE
ENDCHAR
STARTCHAR F
ENCODING 70
SWIDTH 548 0
DWIDTH 8 0
BBX 7 10 1 0
BITMAP
FE
42
40
44
7C
44
40
40
40
E0
ENDCHAR
STARTCHAR G
ENCODING 71
SWIDTH 754 0
DWIDTH 11 0
BBX 9 10 1 0
BITMAP
3D00
6300
4100
8100
8000
8780
8100
C100
6300
3E00
ENDCHAR
STARTCHAR H
ENCODING 72
SWIDTH 685 0
DWIDTH 10 0
BBX 8 10 1 0
BITMAP
E7
42
42
42
7E
42
42
42
42
E7
ENDCHAR
STARTCHAR I
ENCODING 73
SWIDTH 342 0
DWIDTH 5 0
BBX 3 10 1 0
BITMAP
E0
40
40
40
40
40
40
40
40
E0
ENDCHAR
STARTCHAR J
ENCODING 74
SWIDTH 411 0
DWIDTH 6 0
BBX 4 10 1 0
BITMAP
70
20
20
20
20
20
20
20
A0
C0
ENDCHAR
STARTCHAR K
ENCODING 75
SWIDTH 685 0
DWIDTH 10 0
BBX 8 10 2 0
BITMAP
EE
44
48
50
60
50
48
44
42
E7
ENDCHAR
STARTCHAR L
ENCODING 76
SWIDTH 617 0
DWIDTH 9 0
BBX 7 10 1 0
BITMAP
E0
40
40
40
40
40
40
40
42
FE
ENDCHAR
STARTCHAR M
ENCODING 77
SWIDTH 891 0
DWIDTH 13 0
BBX 11 10 1 0
BITMAP
E0E0
60C0
5140
5140
5B40
4A40
4A40
4440
4440
E4E0
ENDCHAR
STARTCHAR N
ENCODING 78
SWIDTH 754 0
DWIDTH 11 0
BBX 9 10 1 0
BITMAP
E380
6100
5100
5900
4900
4D00
4500
4500
4300
E100
ENDCHAR
STARTCHAR O
ENCODING 79
SWIDTH 685 0
DWIDTH 10 0
BBX 8 10 1 0
BITMAP
3C
66
42
81
81
81
81
42
66
3C
ENDCHAR
STARTCHAR P
ENCODING 80
SWIDTH 548 0
DWIDTH 8 0
BBX 6 10 1 0
BITMAP
F8
4C
44
44
4C
78
40
40
40
E0
ENDCHAR
STARTCHAR Q
ENCODING 81
SWIDTH 685 0
DWIDTH 10 0
BBX 8 13 1 -3
BITMAP
3C
66
42
81
81
81
81
42
66
3C
08
06
03
ENDCHAR
STARTCHAR R
ENCODING 82
SWIDTH 617 0
DWIDTH 9 0
BBX 9 10 0 0
BITMAP
FC00
2600
2200
2200
2600
3C00
2400
2200
2300
F180
ENDCHAR
STARTCHAR S
ENCODING 83
SWIDTH 548 0
DWIDTH 8 0
BBX 6 10 1 0
BITMAP
74
CC
84
C0
70
18
04
84
CC
B8
ENDCHAR
STARTCHAR T
ENCODING 84
SWIDTH 617 0
DWIDTH 9 0
BBX 7 10 1 0
BITMAP
FE
92
92
10
10
10
10
10
10
38
ENDCHAR
STARTCHAR U
ENCODING 85
SWIDTH 685 0
DWIDTH 10 0
BBX 8 10 1 0
BITMAP
E7
42
42
42
42
42
42
42
66
3C
ENDCHAR
STARTCHAR V
ENCODING 86
SWIDTH 617 0
DWIDTH 9 0
BBX 9 10 0 0
BITMAP
E380
4100
6300
2200
2200
3600
1400
1C00
0800
0800
ENDCHAR
STARTCHAR W
ENCODING 87
SWIDTH 891 0
DWIDTH 13 0
BBX 13 10 0 0
BITMAP
E738
4210
6230
2220
2220
3560
1540
18C0
18C0
0880
ENDCHAR
STARTCHAR X
ENCODING 88
SWIDTH 685 0
DWIDTH 10 0
BBX 10 10 0 0
BITMAP
F3C0
2100
3200
1200
0C00
0C00
1200
2300
6180
F3C0
ENDCHAR
STARTCHAR Y
ENCODING 89
SWIDTH 617 0
DWIDTH 9 0
BBX 9 10 0 0
BITMAP
E380
4100
2200
3200
1400
0800
0800
0800
0800
1C00
ENDCHAR
STARTCHAR Z
ENCODING 90
SWIDTH 548 0
DWIDTH 8 0
BBX 8 10 0 0
BITMAP
7F
43
46
04
08
18
30
60
C1
FF
ENDCHAR
STARTCHAR bracketleft
ENCODING 91
SWIDTH 342 0
DWIDTH 5 0
BBX 3 13 1 -3
BITMAP
E0
80
80
80
80
80
80
80
80
80
80
80
E0
ENDCHAR
STARTCHAR backslash
ENCODING 92
SWIDTH 274 0
DWIDTH 4 0
BBX 4 10 0 0
BITMAP
80
80
40
40
40
20
20
20
10
10
ENDCHAR
STARTCHAR bracketright
ENCODING 93
SWIDTH 342 0
DWIDTH 5 0
BBX 3 13 0 -3
BITMAP
E0
20
20
20
20
20
20
20
20
20
20
20
E0
ENDCHAR
STARTCHAR asciicircum
ENCODING 94
SWIDTH 480 0
DWIDTH 7 0
BBX 5 5 1 5
BITMAP
20
50
50
88
88
ENDCHAR
STARTCHAR underscore
ENCODING 95
SWIDTH 480 0
DWIDTH 7 0
BBX 7 1 0 -3
BITMAP
FE
ENDCHAR
STARTCHAR grave
ENCODING 96
SWIDTH 342 0
DWIDTH 5 0
BBX 3 3 1 8
BITMAP
80
C0
20
ENDCHAR
STARTCHAR a
ENCODING 97
SWIDTH 480 0
DWIDTH 7 0
BBX 6 7 1 0
BITMAP
70
C8
18
68
88
C8
74
ENDCHAR
STARTCHAR b
ENCODING 98
SWIDTH 480 0
DWIDTH 7 0
BBX 6 10 0 0
BITMAP
C0
40
40
58
6C
44
44
44
4C
78
ENDCHAR
STARTCHAR c
ENCODING 99
SWIDTH 480 0
DWIDTH 7 0
BBX 6 7 1 0
BITMAP
78
C8
80
80
80
C4
78
ENDCHAR
STARTCHAR d
ENCODING 100
SWIDTH 480 0
DWIDTH 7 0
BBX 6 10 1 0
BITMAP
18
08
08
78
C8
88
88
88
D8
74
ENDCHAR
STARTCHAR e
ENCODING 101
SWIDTH 480 0
DWIDTH 7 0
BBX 6 7 1 0
BITMAP
70
88
F8
80
80
C4
78
ENDCHAR
STARTCHAR f
ENCODING 102
SWIDTH 274 0
DWIDTH 4 0
BBX 4 10 0 0
BITMAP
30
50
40
F0
40
40
40
40
40
F0
ENDCHAR
STARTCHAR g
ENCODING 103
SWIDTH 480 0
DWIDTH 7 0
BBX 6 10 1 -3
BITMAP
78
D0
88
C8
70
40
78
84
CC
70
ENDCHAR
STARTCHAR h
ENCODING 104
SWIDTH 480 0
DWIDTH 7 0
BBX 7 10 0 0
BITMAP
C0
40
40
58
6C
44
44
44
44
EE
ENDCHAR
STARTCHAR i
ENCODING 105
SWIDTH 205 0
DWIDTH 3 0
BBX 3 10 0 0
BITMAP
40
40
00
C0
40
40
40
40
40
E0
ENDCHAR
STARTCHAR j
ENCODING 106
SWIDTH 274 0
DWIDTH 4 0
BBX 3 13 0 -3
BITMAP
20
20
00
60
20
20
20
20
20
20
20
A0
C0
ENDCHAR
STARTCHAR k
ENCODING 107
SWIDTH 480 0
DWIDTH 7 0
BBX 7 10 0 0
BITMAP
C0
40
40
4C
48
70
50
48
4C
E6
ENDCHAR
STARTCHAR l
ENCODING 108
SWIDTH 205 0
DWIDTH 3 0
BBX 3 10 0 0
BITMAP
C0
40
40
40
40
40
40
40
40
E0
ENDCHAR
STARTCHAR m
ENCODING 109
SWIDTH 754 0
DWIDTH 11 0
BBX 11 7 0 0
BITMAP
DB80
6EC0
4440
4440
4440
4440
EEE0
ENDCHAR
STARTCHAR n
ENCODING 110
SWIDTH 480 0
DWIDTH 7 0
BBX 7 7 0 0
BITMAP
D8
6C
44
44
44
44
EE
ENDCHAR
STARTCHAR o
ENCODING 111
SWIDTH 480 0
DWIDTH 7 0
BBX 5 7 1 0
BITMAP
70
D8
88
88
88
D8
70
ENDCHAR
STARTCHAR p
ENCODING 112
SWIDTH 480 0
DWIDTH 7 0
BBX 6 10 0 -3
BITMAP
D8
6C
44
44
44
6C
58
40
40
E0
ENDCHAR
STARTCHAR q
ENCODING 113
SWIDTH 480 0
DWIDTH 7 0
BBX 6 10 1 -3
BITMAP
78
C8
88
88
88
D8
68
08
08
1C
ENDCHAR
STARTCHAR r
ENCODING 114
SWIDTH 342 0
DWIDTH 5 0
BBX 5 7 0 0
BITMAP
B8
68
40
40
40
40
E0
ENDCHAR
STARTCHAR s
ENCODING 115
SWIDTH 411 0
DWIDTH 6 0
BBX 4 7 1 0
BITMAP
70
90
C0
60
30
90
E0
ENDCHAR
STARTCHAR t
ENCODING 116
SWIDTH 274 0
DWIDTH 4 0
BBX 4 9 0 0
BITMAP
40
40
F0
40
40
40
40
40
30
ENDCHAR
STARTCHAR u
ENCODING 117
SWIDTH 480 0
DWIDTH 7 0
BBX 7 7 0 0
BITMAP
CC
44
44
44
44
6C
36
ENDCHAR
STARTCHAR v
ENCODING 118
SWIDTH 480 0
DWIDTH 7 0
BBX 7 7 0 0
BITMAP
EE
44
44
28
28
10
10
ENDCHAR
STARTCHAR w
ENCODING 119
SWIDTH 754 0
DWIDTH 11 0
BBX 11 7 0 0
BITMAP
EEE0
4440
4440
2480
3B80
1100
1100
ENDCHAR
STARTCHAR x
ENCODING 120
SWIDTH 480 0
DWIDTH 7 0
BBX 7 7 0 0
BITMAP
EE
44
38
10
38
44
EE
ENDCHAR
STARTCHAR y
ENCODING 121
SWIDTH 480 0
DWIDTH 7 0
BBX 7 10 0 -3
BITMAP
EE
44
44
28
28
10
30
20
A0
C0
ENDCHAR
STARTCHAR z
ENCODING 122
SWIDTH 411 0
DWIDTH 6 0
BBX 6 7 0 0
BITMAP
FC
88
18
30
60
C4
FC
ENDCHAR
STARTCHAR braceleft
ENCODING 123
SWIDTH 480 0
DWIDTH 7 0
BBX 5 13 1 -3
BITMAP
18
20
20
20
20
40
80
40
20
20
20
20
18
ENDCHAR
STARTCHAR bar
ENCODING 124
SWIDTH 205 0
DWIDTH 3 0
BBX 1 10 1 0
BITMAP
80
80
80
80
80
80
80
80
80
80
ENDCHAR
STARTCHAR braceright
ENCODING 125
SWIDTH 480 0
DWIDTH 7 0
BBX 5 13 1 -3
BITMAP
C0
20
20
20
20
10
08
10
20
20
20
20
C0
ENDCHAR
STARTCHAR asciitilde
ENCODING 126
SWIDTH 548 0
DWIDTH 8 0
BBX 7 2 0 3
BITMAP
62
9C
ENDCHAR
STARTCHAR space
ENCODING 160
SWIDTH 205 0
DWIDTH 3 0
BBX 0 0 0 0
BITMAP
ENDCHAR
STARTCHAR exclamdown
ENCODING 161
SWIDTH 342 0
DWIDTH 5 0
BBX 1 10 2 -3
BITMAP
80
80
00
80
80
80
80
80
80
80
ENDCHAR
STARTCHAR cent
ENCODING 162
SWIDTH 480 0
DWIDTH 7 0
BBX 6 9 0 -1
BITMAP
04
7C
CC
90
90
A0
E4
78
80
ENDCHAR
STARTCHAR sterling
ENCODING 163
SWIDTH 548 0
DWIDTH 8 0
BBX 7 10 0 0
BITMAP
1C
34
20
20
F8
20
20
20
E2
BC
ENDCHAR
STARTCHAR currency
ENCODING 164
SWIDTH 480 0
DWIDTH 7 0
BBX 5 7 1 1
BITMAP
88
70
88
88
88
70
88
ENDCHAR
STARTCHAR yen
ENCODING 165
SWIDTH 480 0
DWIDTH 7 0
BBX 7 10 0 0
BITMAP
EE
44
6C
28
7C
10
7C
10
10
38
ENDCHAR
STARTCHAR brokenbar
ENCODING 166
SWIDTH 205 0
DWIDTH 3 0
BBX 1 10 1 0
BITMAP
80
80
80
80
00
00
80
80
80
80
ENDCHAR
STARTCHAR section
ENCODING 167
SWIDTH 480 0
DWIDTH 7 0
BBX 5 13 1 -3
BITMAP
38
58
40
60
70
98
88
C8
70
30
10
D0
E0
ENDCHAR
STARTCHAR dieresis
ENCODING 168
SWIDTH 342 0
DWIDTH 5 0
BBX 3 2 1 8
BITMAP
A0
A0
ENDCHAR
STARTCHAR copyright
ENCODING 169
SWIDTH 822 0
DWIDTH 12 0
BBX 10 10 1 0
BITMAP
1E00
6180
4E80
9240
9040
9040
9240
4C80
6180
1E00
ENDCHAR
STARTCHAR ordfeminine
ENCODING 170
SWIDTH 274 0
DWIDTH 4 0
BBX 3 6 0 4
BITMAP
E0
20
A0
E0
00
E0
ENDCHAR
STARTCHAR guillemotleft
ENCODING 171
SWIDTH 480 0
DWIDTH 7 0
BBX 6 6 0 0
BITMAP
24
48
90
90
48
24
ENDCHAR
STARTCHAR logicalnot
ENCODING 172
SWIDTH 617 0
DWIDTH 9 0
BBX 7 4 1 1
BITMAP
FE
02
02
02
ENDCHAR
STARTCHAR hyphen
ENCODING 173
SWIDTH 342 0
DWIDTH 5 0
BBX 4 1 0 2
BITMAP
F0
ENDCHAR
STARTCHAR registered
ENCODING 174
SWIDTH 822 0
DWIDTH 12 0
BBX 10 10 1 0
BITMAP
1E00
6180
5C80
9240
9C40
9440
9240
5280
6180
1E00
ENDCHAR
STARTCHAR macron
ENCODING 175
SWIDTH 274 0
DWIDTH 4 0
BBX 4 1 0 8
BITMAP
F0
ENDCHAR
STARTCHAR degree
ENCODING 176
SWIDTH 411 0
DWIDTH 6 0
BBX 4 4 1 6
BITMAP
60
90
90
60
ENDCHAR
STARTCHAR plusminus
ENCODING 177
SWIDTH 548 0
DWIDTH 8 0
BBX 7 7 0 0
BITMAP
10
10
FE
10
10
00
FE
ENDCHAR
STARTCHAR twosuperior
ENCODING 178
SWIDTH 274 0
DWIDTH 4 0
BBX 4 6 0 4
BITMAP
60
90
10
20
40
F0
ENDCHAR
STARTCHAR threesuperior
ENCODING 179
SWIDTH 274 0
DWIDTH 4 0
BBX 4 6 0 4
BITMAP
60
90
20
10
90
60
ENDCHAR
STARTCHAR acute
ENCODING 180
SWIDTH 342 0
DWIDTH 5 0
BBX 3 3 1 8
BITMAP
20
60
80
ENDCHAR
STARTCHAR mu
ENCODING 181
SWIDTH 480 0
DWIDTH 7 0
BBX 7 10 0 -3
BITMAP
CC
44
44
44
44
6C
76
40
40
60
ENDCHAR
STARTCHAR paragraph
ENCODING 182
SWIDTH 480 0
DWIDTH 7 0
BBX 7 13 0 -3
BITMAP
3E
74
F4
F4
F4
74
34
14
14
14
14
14
14
ENDCHAR
STARTCHAR periodcentered
ENCODING 183
SWIDTH 274 0
DWIDTH 4 0
BBX 1 2 1 3
BITMAP
80
80
ENDCHAR
STARTCHAR cedilla
ENCODING 184
SWIDTH 342 0
DWIDTH 5 0
BBX 3 3 1 -3
BITMAP
40
20
C0
ENDCHAR
STARTCHAR onesuperior
ENCODING 185
SWIDTH 274 0
DWIDTH 4 0
BBX 3 6 0 4
BITMAP
40
C0
40
40
40
E0
ENDCHAR
STARTCHAR ordmasculine
ENCODING 186
SWIDTH 342 0
DWIDTH 5 0
BBX 4 6 0 4
BITMAP
60
90
90
60
00
F0
ENDCHAR
STARTCHAR guillemotright
ENCODING 187
SWIDTH 480 0
DWIDTH 7 0
BBX 6 6 1 0
BITMAP
90
48
24
24
48
90
ENDCHAR
STARTCHAR onequarter
ENCODING 188
SWIDTH 685 0
DWIDTH 10 0
BBX 10 10 0 0
BITMAP
4100
C200
4200
4400
4480
E980
0A80
1480
17C0
2080
ENDCHAR
STARTCHAR onehalf
ENCODING 189
SWIDTH 685 0
DWIDTH 10 0
BBX 10 10 0 0
BITMAP
4100
C200
4200
4400
4580
EA40
0840
1080
1100
23C0
ENDCHAR
STARTCHAR threequarters
ENCODING 190
SWIDTH 685 0
DWIDTH 10 0
BBX 10 10 0 0
BITMAP
6100
9200
2200
1400
9480
6980
0A80
1480
17C0
2080
ENDCHAR
STARTCHAR questiondown
ENCODING 191
SWIDTH 411 0
DWIDTH 6 0
BBX 5 10 0 -3
BITMAP
20
20
00
20
20
40
80
88
88
70
ENDCHAR
STARTCHAR Agrave
ENCODING 192
SWIDTH 722 0
DWIDTH 11 0
BBX 9 14 1 0
BITMAP
2000
3000
0800
0000
0800
0800
1400
1400
2200
2200
3E00
4100
4100
E380
ENDCHAR
STARTCHAR Aacute
ENCODING 193
SWIDTH 722 0
DWIDTH 11 0
BBX 9 14 1 0
BITMAP
0200
0600
0800
0000
0800
0800
1400
1400
2200
2200
3E00
4100
4100
E380
ENDCHAR
STARTCHAR Acircumflex
ENCODING 194
SWIDTH 722 0
DWIDTH 11 0
BBX 9 14 1 0
BITMAP
0800
1C00
2200
0000
0800
0800
1400
1400
2200
2200
3E00
4100
4100
E380
ENDCHAR
STARTCHAR Atilde
ENCODING 195
SWIDTH 722 0
DWIDTH 11 0
BBX 9 13 1 0
BITMAP
1A00
2C00
0000
0800
0800
1400
1400
2200
2200
3E00
4100
4100
E380
ENDCHAR
STARTCHAR Adieresis
ENCODING 196
SWIDTH 722 0
DWIDTH 11 0
BBX 9 13 1 0
BITMAP
2400
2400
0000
0800
0800
1400
1400
2200
2200
3E00
4100
4100
E380
ENDCHAR
STARTCHAR Aring
ENCODING 197
SWIDTH 722 0
DWIDTH 11 0
BBX 9 14 1 0
BITMAP
0800
1400
0800
0000
0800
0800
1400
1400
2200
2200
3E00
4100
4100
E380
ENDCHAR
STARTCHAR AE
ENCODING 198
SWIDTH 889 0
DWIDTH 13 0
BBX 11 10 1 0
BITMAP
1FE0
0C20
1400
1440
27C0
2440
3C00
4420
4420
EFE0
ENDCHAR
STARTCHAR Ccedilla
ENCODING 199
SWIDTH 667 0
DWIDTH 10 0
BBX 8 13 1 -3
BITMAP
3D
63
41
81
80
80
80
C1
62
3C
10
08
30
ENDCHAR
STARTCHAR Egrave
ENCODING 200
SWIDTH 611 0
DWIDTH 9 0
BBX 7 14 1 0
BITMAP
20
30
08
00
FE
42
40
44
7C
44
40
40
42
FE
ENDCHAR
STARTCHAR Eacute
ENCODING 201
SWIDTH 611 0
DWIDTH 9 0
BBX 7 14 1 0
BITMAP
04
0C
10
00
FE
42
40
44
7C
44
40
40
42
FE
ENDCHAR
STARTCHAR Ecircumflex
ENCODING 202
SWIDTH 611 0
DWIDTH 9 0
BBX 7 14 1 0
BITMAP
10
38
44
00
FE
42
40
44
7C
44
40
40
42
FE
ENDCHAR
STARTCHAR Edieresis
ENCODING 203
SWIDTH 611 0
DWIDTH 9 0
BBX 7 13 1 0
BITMAP
24
24
00
FE
42
40
44
7C
44
40
40
42
FE
ENDCHAR
STARTCHAR Igrave
ENCODING 204
SWIDTH 333 0
DWIDTH 5 0
BBX 3 14 1 0
BITMAP
80
C0
20
00
E0
40
40
40
40
40
40
40
40
E0
ENDCHAR
STARTCHAR Iacute
ENCODING 205
SWIDTH 333 0
DWIDTH 5 0
BBX 4 14 1 0
BITMAP
10
30
40
00
E0
40
40
40
40
40
40
40
40
E0
ENDCHAR
STARTCHAR Icircumflex
ENCODING 206
SWIDTH 333 0
DWIDTH 5 0
BBX 5 14 0 0
BITMAP
20
70
88
00
70
20
20
20
20
20
20
20
20
70
ENDCHAR
STARTCHAR Idieresis
ENCODING 207
SWIDTH 333 0
DWIDTH 5 0
BBX 3 13 1 0
BITMAP
A0
A0
00
E0
40
40
40
40
40
40
40
40
E0
ENDCHAR
STARTCHAR Eth
ENCODING 208
SWIDTH 722 0
DWIDTH 10 0
BBX 9 10 0 0
BITMAP
FE00
2300
2100
2080
F880
2080
2080
2100
2300
FE00
ENDCHAR
STARTCHAR Ntilde
ENCODING 209
SWIDTH 722 0
DWIDTH 11 0
BBX 9 13 1 0
BITMAP
1A00
2C00
0000
E380
6100
5100
5900
4900
4D00
4500
4500
4300
E100
ENDCHAR
STARTCHAR Ograve
ENCODING 210
SWIDTH 722 0
DWIDTH 10 0
BBX 8 14 1 0
BITMAP
20
30
08
00
3C
66
42
81
81
81
81
42
66
3C
ENDCHAR
STARTCHAR Oacute
ENCODING 211
SWIDTH 722 0
DWIDTH 10 0
BBX 8 14 1 0
BITMAP
02
06
08
00
3C
66
42
81
81
81
81
42
66
3C
ENDCHAR
STARTCHAR Ocircumflex
ENCODING 212
SWIDTH 722 0
DWIDTH 10 0
BBX 8 14 1 0
BITMAP
10
38
44
00
3C
66
42
81
81
81
81
42
66
3C
ENDCHAR
STARTCHAR Otilde
ENCODING 213
SWIDTH 722 0
DWIDTH 10 0
BBX 8 13 1 0
BITMAP
1A
2C
00
3C
66
42
81
81
81
81
42
66
3C
ENDCHAR
STARTCHAR Odieresis
ENCODING 214
SWIDTH 722 0
DWIDTH 10 0
BBX 8 13 1 0
BITMAP
24
24
00
3C
66
42
81
81
81
81
42
66
3C
ENDCHAR
STARTCHAR multiply
ENCODING 215
SWIDTH 564 0
DWIDTH 8 0
BBX 7 7 0 0
BITMAP
82
44
28
10
28
44
82
ENDCHAR
STARTCHAR Oslash
ENCODING 216
SWIDTH 722 0
DWIDTH 10 0
BBX 9 12 0 -1
BITMAP
0080
1F00
3100
2300
4480
4C80
4880
5080
3100
6300
5E00
8000
ENDCHAR
STARTCHAR Ugrave
ENCODING 217
SWIDTH 722 0
DWIDTH 10 0
BBX 8 14 1 0
BITMAP
20
30
08
00
E7
42
42
42
42
42
42
42
66
3C
ENDCHAR
STARTCHAR Uacute
ENCODING 218
SWIDTH 722 0
DWIDTH 10 0
BBX 8 14 1 0
BITMAP
04
0C
10
00
E7
42
42
42
42
42
42
42
66
3C
ENDCHAR
STARTCHAR Ucircumflex
ENCODING 219
SWIDTH 722 0
DWIDTH 10 0
BBX 8 14 1 0
BITMAP
08
1C
22
00
E7
42
42
42
42
42
42
42
66
3C
ENDCHAR
STARTCHAR Udieresis
ENCODING 220
SWIDTH 722 0
DWIDTH 10 0
BBX 8 13 1 0
BITMAP
24
24
00
E7
42
42
42
42
42
42
42
66
3C
ENDCHAR
STARTCHAR Yacute
ENCODING 221
SWIDTH 722 0
DWIDTH 9 0
BBX 9 14 0 0
BITMAP
0200
0600
0800
0000
E380
4100
2200
3200
1400
0800
0800
0800
0800
1C00
ENDCHAR
STARTCHAR Thorn
ENCODING 222
SWIDTH 556 0
DWIDTH 8 0
BBX 6 10 1 0
BITMAP
E0
40
78
4C
44
44
4C
78
40
E0
ENDCHAR
STARTCHAR germandbls
ENCODING 223
SWIDTH 500 0
DWIDTH 7 0
BBX 6 10 0 0
BITMAP
38
6C
44
48
70
58
4C
44
54
D8
ENDCHAR
STARTCHAR agrave
ENCODING 224
SWIDTH 444 0
DWIDTH 7 0
BBX 6 11 1 0
BITMAP
40
60
10
00
70
C8
18
68
88
C8
74
ENDCHAR
STARTCHAR aacute
ENCODING 225
SWIDTH 444 0
DWIDTH 7 0
BBX 6 11 1 0
BITMAP
08
18
20
00
70
C8
18
68
88
C8
74
ENDCHAR
STARTCHAR acircumflex
ENCODING 226
SWIDTH 444 0
DWIDTH 7 0
BBX 6 11 1 0
BITMAP
20
70
88
00
70
C8
18
68
88
C8
74
ENDCHAR
STARTCHAR atilde
ENCODING 227
SWIDTH 444 0
DWIDTH 7 0
BBX 6 10 1 0
BITMAP
68
B0
00
70
C8
18
68
88
C8
74
ENDCHAR
STARTCHAR adieresis
ENCODING 228
SWIDTH 444 0
DWIDTH 7 0
BBX 6 10 1 0
BITMAP
50
50
00
70
C8
18
68
88
C8
74
ENDCHAR
STARTCHAR aring
ENCODING 229
SWIDTH 444 0
DWIDTH 7 0
BBX 6 11 1 0
BITMAP
20
50
20
00
70
C8
18
68
88
C8
74
ENDCHAR
STARTCHAR ae
ENCODING 230
SWIDTH 667 0
DWIDTH 11 0
BBX 9 7 1 0
BITMAP
7F00
C980
1F00
6800
8800
CC80
7700
ENDCHAR
STARTCHAR ccedilla
ENCODING 231
SWIDTH 444 0
DWIDTH 7 0
BBX 6 10 1 -3
BITMAP
70
C8
80
80
80
C4
78
20
10
60
ENDCHAR
STARTCHAR egrave
ENCODING 232
SWIDTH 444 0
DWIDTH 7 0
BBX 6 11 1 0
BITMAP
40
60
10
00
70
98
F0
80
80
C4
78
ENDCHAR
STARTCHAR eacute
ENCODING 233
SWIDTH 444 0
DWIDTH 7 0
BBX 6 11 1 0
BITMAP
10
30
40
00
70
98
F0
80
80
C4
78
ENDCHAR
STARTCHAR ecircumflex
ENCODING 234
SWIDTH 444 0
DWIDTH 7 0
BBX 6 11 1 0
BITMAP
20
70
88
00
70
98
F0
80
80
C4
78
ENDCHAR
STARTCHAR edieresis
ENCODING 235
SWIDTH 444 0
DWIDTH 7 0
BBX 6 10 1 0
BITMAP
50
50
00
70
98
F0
80
80
C4
78
ENDCHAR
STARTCHAR igrave
ENCODING 236
SWIDTH 278 0
DWIDTH 3 0
BBX 3 11 0 0
BITMAP
80
C0
20
00
C0
40
40
40
40
40
E0
ENDCHAR
STARTCHAR iacute
ENCODING 237
SWIDTH 278 0
DWIDTH 3 0
BBX 3 11 0 0
BITMAP
20
60
80
00
C0
40
40
40
40
40
E0
ENDCHAR
STARTCHAR icircumflex
ENCODING 238
SWIDTH 278 0
DWIDTH 3 0
BBX 5 11 -1 0
BITMAP
20
70
88
00
60
20
20
20
20
20
70
ENDCHAR
STARTCHAR idieresis
ENCODING 239
SWIDTH 278 0
DWIDTH 3 0
BBX 3 10 0 0
BITMAP
A0
A0
00
C0
40
40
40
40
40
E0
ENDCHAR
STARTCHAR eth
ENCODING 240
SWIDTH 500 0
DWIDTH 7 0
BBX 5 10 1 0
BITMAP
D8
60
90
78
D8
88
88
88
D8
70
ENDCHAR
STARTCHAR ntilde
ENCODING 241
SWIDTH 500 0
DWIDTH 7 0
BBX 7 10 0 0
BITMAP
34
58
00
D8
6C
44
44
44
44
EE
ENDCHAR
STARTCHAR ograve
ENCODING 242
SWIDTH 500 0
DWIDTH 7 0
BBX 5 11 1 0
BITMAP
40
60
10
00
70
D8
88
88
88
D8
70
ENDCHAR
STARTCHAR oacute
ENCODING 243
SWIDTH 500 0
DWIDTH 7 0
BBX 5 11 1 0
BITMAP
10
30
40
00
70
D8
88
88
88
D8
70
ENDCHAR
STARTCHAR ocircumflex
ENCODING 244
SWIDTH 500 0
DWIDTH 7 0
BBX 5 11 1 0
BITMAP
20
70
88
00
70
D8
88
88
88
D8
70
ENDCHAR
STARTCHAR otilde
ENCODING 245
SWIDTH 500 0
DWIDTH 7 0
BBX 5 10 1 0
BITMAP
68
B0
00
70
D8
88
88
88
D8
70
ENDCHAR
STARTCHAR odieresis
ENCODING 246
SWIDTH 500 0
DWIDTH 7 0
BBX 5 10 1 0
BITMAP
50
50
00
70
D8
88
88
88
D8
70
ENDCHAR
STARTCHAR divide
ENCODING 247
SWIDTH 564 0
DWIDTH 8 0
BBX 7 7 0 0
BITMAP
10
10
00
FE
00
10
10
ENDCHAR
STARTCHAR oslash
ENCODING 248
SWIDTH 500 0
DWIDTH 7 0
BBX 7 9 0 -1
BITMAP
02
3C
6C
44
44
44
6C
78
80
ENDCHAR
STARTCHAR ugrave
ENCODING 249
SWIDTH 500 0
DWIDTH 7 0
BBX 7 11 0 0
BITMAP
20
30
08
00
CC
44
44
44
44
6C
36
ENDCHAR
STARTCHAR uacute
ENCODING 250
SWIDTH 500 0
DWIDTH 7 0
BBX 7 11 0 0
BITMAP
08
18
20
00
CC
44
44
44
44
6C
36
ENDCHAR
STARTCHAR ucircumflex
ENCODING 251
SWIDTH 500 0
DWIDTH 7 0
BBX 7 11 0 0
BITMAP
10
38
44
00
CC
44
44
44
44
6C
36
ENDCHAR
STARTCHAR udieresis
ENCODING 252
SWIDTH 500 0
DWIDTH 7 0
BBX 7 10 0 0
BITMAP
28
28
00
CC
44
44
44
44
6C
36
ENDCHAR
STARTCHAR yacute
ENCODING 253
SWIDTH 500 0
DWIDTH 7 0
BBX 7 14 0 -3
BITMAP
04
0C
10
00
EE
44
44
28
28
10
30
20
A0
C0
ENDCHAR
STARTCHAR thorn
ENCODING 254
SWIDTH 500 0
DWIDTH 7 0
BBX 6 13 0 -3
BITMAP
C0
40
40
58
6C
44
44
44
6C
58
40
40
E0
ENDCHAR
STARTCHAR ydieresis
ENCODING 255
SWIDTH 500 0
DWIDTH 7 0
BBX 7 13 0 -3
BITMAP
28
28
00
EE
44
44
28
28
10
30
20
A0
C0
ENDCHAR
STARTCHAR Amacron
ENCODING 256
SWIDTH 722 0
DWIDTH 11 0
BBX 9 12 1 0
BITMAP
1E00
0000
0800
0800
1400
1400
2200
2200
3E00
4100
4100
E380
ENDCHAR
STARTCHAR amacron
ENCODING 257
SWIDTH 444 0
DWIDTH 7 0
BBX 6 9 1 0
BITMAP
78
00
70
C8
18
68
88
C8
74
ENDCHAR
STARTCHAR Abreve
ENCODING 258
SWIDTH 722 0
DWIDTH 11 0
BBX 9 14 1 0
BITMAP
1200
1200
0C00
0000
0800
0800
1400
1400
2200
2200
3E00
4100
4100
E380
ENDCHAR
STARTCHAR abreve
ENCODING 259
SWIDTH 444 0
DWIDTH 7 0
BBX 6 11 1 0
BITMAP
48
48
30
00
70
C8
18
68
88
C8
74
ENDCHAR
STARTCHAR Aogonek
ENCODING 260
SWIDTH 722 0
DWIDTH 11 0
BBX 9 13 1 -3
BITMAP
0800
0800
1400
1400
2200
2200
3E00
4100
4100
E380
0800
1200
0C00
ENDCHAR
STARTCHAR aogonek
ENCODING 261
SWIDTH 444 0
DWIDTH 7 0
BBX 6 10 1 -3
BITMAP
70
C8
18
68
88
C8
74
20
48
30
ENDCHAR
STARTCHAR Cacute
ENCODING 262
SWIDTH 667 0
DWIDTH 10 0
BBX 8 14 1 0
BITMAP
04
0C
10
00
3D
63
C1
81
80
80
80
C1
62
3C
ENDCHAR
STARTCHAR cacute
ENCODING 263
SWIDTH 444 0
DWIDTH 7 0
BBX 6 11 1 0
BITMAP
08
18
20
00
78
C8
80
80
80
C4
78
ENDCHAR
STARTCHAR Ccircumflex
ENCODING 264
SWIDTH 667 0
DWIDTH 10 0
BBX 8 14 1 0
BITMAP
08
1C
22
00
3D
63
C1
81
80
80
80
C1
62
3C
ENDCHAR
STARTCHAR ccircumflex
ENCODING 265
SWIDTH 444 0
DWIDTH 7 0
BBX 6 11 1 0
BITMAP
20
70
88
00
78
C8
80
80
80
C4
78
ENDCHAR
STARTCHAR Cdotaccent
ENCODING 266
SWIDTH 667 0
DWIDTH 10 0
BBX 8 13 1 0
BITMAP
08
08
00
3D
63
C1
81
80
80
80
C1
62
3C
ENDCHAR
STARTCHAR cdotaccent
ENCODING 267
SWIDTH 444 0
DWIDTH 7 0
BBX 6 10 1 0
BITMAP
20
20
00
78
C8
80
80
80
C4
78
ENDCHAR
STARTCHAR Ccaron
ENCODING 268
SWIDTH 667 0
DWIDTH 10 0
BBX 8 14 1 0
BITMAP
22
1C
08
00
3D
63
C1
81
80
80
80
C1
62
3C
ENDCHAR
STARTCHAR ccaron
ENCODING 269
SWIDTH 444 0
DWIDTH 7 0
BBX 6 11 1 0
BITMAP
88
70
20
00
78
C8
80
80
80
C4
78
ENDCHAR
STARTCHAR Dcaron
ENCODING 270
SWIDTH 722 0
DWIDTH 10 0
BBX 9 14 0 0
BITMAP
2200
1C00
0800
0000
FE00
2300
2100
2080
2080
2080
2080
2100
2300
FE00
ENDCHAR
STARTCHAR dcaron
ENCODING 271
SWIDTH 808 0
DWIDTH 11 0
BBX 9 10 1 0
BITMAP
1980
0880
0900
7800
C800
8800
8800
8800
D800
7400
ENDCHAR
STARTCHAR Dcroat
ENCODING 272
SWIDTH 722 0
DWIDTH 10 0
BBX 9 10 0 0
BITMAP
FE00
2300
2100
2080
F880
2080
2080
2100
2300
FE00
ENDCHAR
STARTCHAR dcroat
ENCODING 273
SWIDTH 500 0
DWIDTH 7 0
BBX 6 10 1 0
BITMAP
18
1C
08
78
C8
88
88
88
D8
74
ENDCHAR
STARTCHAR Emacron
ENCODING 274
SWIDTH 611 0
DWIDTH 9 0
BBX 7 12 1 0
BITMAP
78
00
FE
42
40
44
7C
44
40
40
42
FE
ENDCHAR
STARTCHAR emacron
ENCODING 275
SWIDTH 444 0
DWIDTH 7 0
BBX 6 9 1 0
BITMAP
78
00
70
88
F8
80
80
C4
78
ENDCHAR
STARTCHAR Ebreve
ENCODING 276
SWIDTH 611 0
DWIDTH 9 0
BBX 7 14 1 0
BITMAP
48
48
30
00
FE
42
40
44
7C
44
40
40
42
FE
ENDCHAR
STARTCHAR ebreve
ENCODING 277
SWIDTH 444 0
DWIDTH 7 0
BBX 6 11 1 0
BITMAP
48
48
30
00
70
88
F8
80
80
C4
78
ENDCHAR
STARTCHAR Edotaccent
ENCODING 278
SWIDTH 611 0
DWIDTH 9 0
BBX 7 13 1 0
BITMAP
10
10
00
FE
42
40
44
7C
44
40
40
42
FE
ENDCHAR
STARTCHAR edotaccent
ENCODING 279
SWIDTH 444 0
DWIDTH 7 0
BBX 6 10 1 0
BITMAP
20
20
00
70
88
F8
80
80
C4
78
ENDCHAR
STARTCHAR Eogonek
ENCODING 280
SWIDTH 611 0
DWIDTH 9 0
BBX 7 13 1 -3
BITMAP
FE
42
40
44
7C
44
40
40
42
FE
10
24
18
ENDCHAR
STARTCHAR eogonek
ENCODING 281
SWIDTH 444 0
DWIDTH 7 0
BBX 6 10 1 -3
BITMAP
70
88
F8
80
80
C4
78
20
48
30
ENDCHAR
STARTCHAR Ecaron
ENCODING 282
SWIDTH 611 0
DWIDTH 9 0
BBX 7 14 1 0
BITMAP
44
38
10
00
FE
42
40
44
7C
44
40
40
42
FE
ENDCHAR
STARTCHAR ecaron
ENCODING 283
SWIDTH 444 0
DWIDTH 7 0
BBX 6 11 1 0
BITMAP
88
70
20
00
70
88
F8
80
80
C4
78
ENDCHAR
STARTCHAR Gcircumflex
ENCODING 284
SWIDTH 722 0
DWIDTH 11 0
BBX 9 14 1 0
BITMAP
0800
1C00
2200
0000
3D00
6300
4100
8100
8000
8780
8100
C100
6300
3E00
ENDCHAR
STARTCHAR gcircumflex
ENCODING 285
SWIDTH 500 0
DWIDTH 7 0
BBX 6 14 1 -3
BITMAP
20
70
88
00
78
D0
88
C8
70
40
78
84
CC
70
ENDCHAR
STARTCHAR Gbreve
ENCODING 286
SWIDTH 722 0
DWIDTH 11 0
BBX 9 14 1 0
BITMAP
1200
1200
0C00
0000
3D00
6300
4100
8100
8000
8780
8100
C100
6300
3E00
ENDCHAR
STARTCHAR gbreve
ENCODING 287
SWIDTH 500 0
DWIDTH 7 0
BBX 6 14 1 -3
BITMAP
48
48
30
00
78
D0
88
C8
70
40
78
84
CC
70
ENDCHAR
STARTCHAR Gdotaccent
ENCODING 288
SWIDTH 722 0
DWIDTH 11 0
BBX 9 13 1 0
BITMAP
0800
0800
0000
3D00
6300
4100
8100
8000
8780
8100
C100
6300
3E00
ENDCHAR
STARTCHAR gdotaccent
ENCODING 289
SWIDTH 500 0
DWIDTH 7 0
BBX 6 13 1 -3
BITMAP
20
20
00
78
D0
88
C8
70
40
78
84
CC
70
ENDCHAR
STARTCHAR Gcommaaccent
ENCODING 290
SWIDTH 722 0
DWIDTH 11 0
BBX 9 15 1 -5
BITMAP
3D00
6300
4100
8100
8000
8780
8100
C100
6300
3E00
0000
0800
0800
0800
1000
ENDCHAR
STARTCHAR gcommaaccent
ENCODING 291
SWIDTH 500 0
DWIDTH 7 0
BBX 6 14 1 -3
BITMAP
10
20
30
00
78
D0
88
C8
70
40
78
84
CC
70
ENDCHAR
STARTCHAR Hcircumflex
ENCODING 292
SWIDTH 722 0
DWIDTH 10 0
BBX 8 14 1 0
BITMAP
08
1C
22
00
E7
42
42
42
7E
42
42
42
42
E7
ENDCHAR
STARTCHAR hcircumflex
ENCODING 293
SWIDTH 500 0
DWIDTH 7 0
BBX 7 14 0 0
BITMAP
20
70
88
00
C0
40
40
58
6C
44
44
44
44
EE
ENDCHAR
STARTCHAR Hbar
ENCODING 294
SWIDTH 722 0
DWIDTH 10 0
BBX 8 10 1 0
BITMAP
E7
42
FF
42
7E
42
42
42
42
E7
ENDCHAR
STARTCHAR hbar
ENCODING 295
SWIDTH 500 0
DWIDTH 7 0
BBX 7 10 0 0
BITMAP
C0
70
40
58
6C
44
44
44
44
EE
ENDCHAR
STARTCHAR Itilde
ENCODING 296
SWIDTH 333 0
DWIDTH 5 0
BBX 5 13 0 0
BITMAP
68
B0
00
70
20
20
20
20
20
20
20
20
70
ENDCHAR
STARTCHAR itilde
ENCODING 297
SWIDTH 278 0
DWIDTH 3 0
BBX 5 10 -1 0
BITMAP
68
B0
00
60
20
20
20
20
20
70
ENDCHAR
STARTCHAR Imacron
ENCODING 298
SWIDTH 333 0
DWIDTH 5 0
BBX 4 12 1 0
BITMAP
F0
00
E0
40
40
40
40
40
40
40
40
E0
ENDCHAR
STARTCHAR imacron
ENCODING 299
SWIDTH 278 0
DWIDTH 3 0
BBX 4 9 -1 0
BITMAP
F0
00
60
20
20
20
20
20
70
ENDCHAR
STARTCHAR Ibreve
ENCODING 300
SWIDTH 333 0
DWIDTH 5 0
BBX 4 14 1 0
BITMAP
90
90
60
00
E0
40
40
40
40
40
40
40
40
E0
ENDCHAR
STARTCHAR ibreve
ENCODING 301
SWIDTH 278 0
DWIDTH 3 0
BBX 4 11 -1 0
BITMAP
90
90
60
00
60
20
20
20
20
20
70
ENDCHAR
STARTCHAR Iogonek
ENCODING 302
SWIDTH 333 0
DWIDTH 5 0
BBX 4 13 1 -3
BITMAP
E0
40
40
40
40
40
40
40
40
E0
40
90
60
ENDCHAR
STARTCHAR iogonek
ENCODING 303
SWIDTH 278 0
DWIDTH 3 0
BBX 4 13 0 -3
BITMAP
40
40
00
C0
40
40
40
40
40
E0
40
90
60
ENDCHAR
STARTCHAR Idotaccent
ENCODING 304
SWIDTH 333 0
DWIDTH 5 0
BBX 3 13 1 0
BITMAP
40
40
00
E0
40
40
40
40
40
40
40
40
E0
ENDCHAR
STARTCHAR dotlessi
ENCODING 305
SWIDTH 278 0
DWIDTH 3 0
BBX 3 7 0 0
BITMAP
C0
40
40
40
40
40
E0
ENDCHAR
STARTCHAR IJ
ENCODING 306
SWIDTH 705 0
DWIDTH 11 0
BBX 9 10 1 0
BITMAP
E380
4100
4100
4100
4100
4100
4100
4100
4500
E600
ENDCHAR
STARTCHAR ij
ENCODING 307
SWIDTH 542 0
DWIDTH 7 0
BBX 6 13 0 -3
BITMAP
44
44
00
CC
44
44
44
44
44
E4
04
14
18
ENDCHAR
STARTCHAR Jcircumflex
ENCODING 308
SWIDTH 389 0
DWIDTH 6 0
BBX 5 14 1 0
BITMAP
20
70
88
00
70
20
20
20
20
20
20
20
A0
C0
ENDCHAR
STARTCHAR jcircumflex
ENCODING 309
SWIDTH 278 0
DWIDTH 4 0
BBX 5 14 0 -3
BITMAP
20
70
88
00
60
20
20
20
20
20
20
20
A0
C0
ENDCHAR
STARTCHAR Kcommaaccent
ENCODING 310
SWIDTH 722 0
DWIDTH 10 0
BBX 8 15 2 -5
BITMAP
EE
44
48
50
60
50
48
44
42
E7
00
08
08
08
10
ENDCHAR
STARTCHAR kcommaaccent
ENCODING 311
SWIDTH 500 0
DWIDTH 7 0
BBX 7 15 0 -5
BITMAP
C0
40
40
4C
48
70
50
48
4C
E6
00
10
10
10
20
ENDCHAR
STARTCHAR kgreenlandic
ENCODING 312
SWIDTH 500 0
DWIDTH 7 0
BBX 7 7 0 0
BITMAP
4C
48
70
50
48
4C
E6
ENDCHAR
STARTCHAR Lacute
ENCODING 313
SWIDTH 611 0
DWIDTH 9 0
BBX 7 14 1 0
BITMAP
10
30
40
00
E0
40
40
40
40
40
40
40
42
FE
ENDCHAR
STARTCHAR lacute
ENCODING 314
SWIDTH 278 0
DWIDTH 3 0
BBX 4 14 0 0
BITMAP
10
30
40
00
C0
40
40
40
40
40
40
40
40
E0
ENDCHAR
STARTCHAR Lcommaaccent
ENCODING 315
SWIDTH 611 0
DWIDTH 9 0
BBX 7 15 1 -5
BITMAP
E0
40
40
40
40
40
40
40
42
FE
00
10
10
10
20
ENDCHAR
STARTCHAR lcommaaccent
ENCODING 316
SWIDTH 278 0
DWIDTH 3 0
BBX 3 15 0 -5
BITMAP
C0
40
40
40
40
40
40
40
40
E0
00
40
40
40
80
ENDCHAR
STARTCHAR Lcaron
ENCODING 317
SWIDTH 913 0
DWIDTH 13 0
BBX 11 10 1 0
BITMAP
E060
4020
4040
4000
4000
4000
4000
4000
4200
FE00
ENDCHAR
STARTCHAR lcaron
ENCODING 318
SWIDTH 597 0
DWIDTH 7 0
BBX 6 10 0 0
BITMAP
CC
44
48
40
40
40
40
40
40
E0
ENDCHAR
STARTCHAR Ldot
ENCODING 319
SWIDTH 830 0
DWIDTH 13 0
BBX 10 10 1 0
BITMAP
E000
4000
4000
4000
4000
4040
4040
4000
4200
FE00
ENDCHAR
STARTCHAR ldot
ENCODING 320
SWIDTH 514 0
DWIDTH 7 0
BBX 5 10 0 0
BITMAP
C0
40
40
40
40
48
48
40
40
E0
ENDCHAR
STARTCHAR Lslash
ENCODING 321
SWIDTH 611 0
DWIDTH 9 0
BBX 7 10 1 0
BITMAP
E0
40
40
40
60
C0
40
40
42
FE
ENDCHAR
STARTCHAR lslash
ENCODING 322
SWIDTH 278 0
DWIDTH 3 0
BBX 3 10 0 0
BITMAP
C0
40
40
40
60
C0
40
40
40
E0
ENDCHAR
STARTCHAR Nacute
ENCODING 323
SWIDTH 722 0
DWIDTH 11 0
BBX 9 14 1 0
BITMAP
0200
0600
0800
0000
E380
6100
5100
5900
4900
4D00
4500
4500
4300
E100
ENDCHAR
STARTCHAR nacute
ENCODING 324
SWIDTH 500 0
DWIDTH 7 0
BBX 7 11 0 0
BITMAP
08
18
20
00
D8
6C
44
44
44
44
EE
ENDCHAR
STARTCHAR Ncommaaccent
ENCODING 325
SWIDTH 722 0
DWIDTH 11 0
BBX 9 15 1 -5
BITMAP
E380
6100
5100
5900
4900
4D00
4500
4500
4300
E100
0000
0800
0800
0800
1000
ENDCHAR
STARTCHAR ncommaaccent
ENCODING 326
SWIDTH 500 0
DWIDTH 7 0
BBX 7 12 0 -5
BITMAP
D8
6C
44
44
44
44
EE
00
10
10
10
20
ENDCHAR
STARTCHAR Ncaron
ENCODING 327
SWIDTH 722 0
DWIDTH 11 0
BBX 9 14 1 0
BITMAP
2200
1C00
0800
0000
E380
6100
5100
5900
4900
4D00
4500
4500
4300
E100
ENDCHAR
STARTCHAR ncaron
ENCODING 328
SWIDTH 500 0
DWIDTH 7 0
BBX 7 11 0 0
BITMAP
44
38
10
00
D8
6C
44
44
44
44
EE
ENDCHAR
STARTCHAR napostrophe
ENCODING 329
SWIDTH 816 0
DWIDTH 11 0
BBX 10 10 1 0
BITMAP
C000
4000
8000
1B00
0D80
0880
0880
0880
0880
1DC0
ENDCHAR
STARTCHAR Eng
ENCODING 330
SWIDTH 722 0
DWIDTH 11 0
BBX 9 13 1 -3
BITMAP
E380
6100
5100
5900
4900
4D00
4500
4500
4300
E100
0100
0500
0600
ENDCHAR
STARTCHAR eng
ENCODING 331
SWIDTH 500 0
DWIDTH 7 0
BBX 6 10 0 -3
BITMAP
D8
6C
44
44
44
44
E4
04
14
18
ENDCHAR
STARTCHAR Omacron
ENCODING 332
SWIDTH 722 0
DWIDTH 10 0
BBX 8 12 1 0
BITMAP
3C
00
3C
66
42
81
81
81
81
42
66
3C
ENDCHAR
STARTCHAR omacron
ENCODING 333
SWIDTH 500 0
DWIDTH 7 0
BBX 5 9 1 0
BITMAP
78
00
70
D8
88
88
88
D8
70
ENDCHAR
STARTCHAR Obreve
ENCODING 334
SWIDTH 722 0
DWIDTH 10 0
BBX 8 14 1 0
BITMAP
24
24
18
00
3C
66
42
81
81
81
81
42
66
3C
ENDCHAR
STARTCHAR obreve
ENCODING 335
SWIDTH 500 0
DWIDTH 7 0
BBX 5 11 1 0
BITMAP
48
48
30
00
70
D8
88
88
88
D8
70
ENDCHAR
STARTCHAR Ohungarumlaut
ENCODING 336
SWIDTH 722 0
DWIDTH 10 0
BBX 8 14 1 0
BITMAP
09
1B
24
00
3C
66
42
81
81
81
81
42
66
3C
ENDCHAR
STARTCHAR ohungarumlaut
ENCODING 337
SWIDTH 500 0
DWIDTH 7 0
BBX 6 11 1 0
BITMAP
24
6C
90
00
70
D8
88
88
88
D8
70
ENDCHAR
STARTCHAR OE
ENCODING 338
SWIDTH 889 0
DWIDTH 13 0
BBX 11 10 1 0
BITMAP
1FE0
6420
4400
8440
87C0
8440
8400
4420
6420
1FE0
ENDCHAR
STARTCHAR oe
ENCODING 339
SWIDTH 722 0
DWIDTH 11 0
BBX 10 7 1 0
BITMAP
7700
D980
8F00
8800
8800
DC40
7780
ENDCHAR
STARTCHAR Racute
ENCODING 340
SWIDTH 667 0
DWIDTH 9 0
BBX 9 14 0 0
BITMAP
0400
0C00
1000
0000
FC00
2600
2200
2200
2600
3C00
2400
2200
2300
F180
ENDCHAR
STARTCHAR racute
ENCODING 341
SWIDTH 333 0
DWIDTH 5 0
BBX 5 11 0 0
BITMAP
08
18
20
00
B8
68
40
40
40
40
E0
ENDCHAR
STARTCHAR Rcommaaccent
ENCODING 342
SWIDTH 667 0
DWIDTH 9 0
BBX 9 15 0 -5
BITMAP
FC00
2600
2200
2200
2600
3C00
2400
2200
2300
F180
0000
0800
0800
0800
1000
ENDCHAR
STARTCHAR rcommaaccent
ENCODING 343
SWIDTH 333 0
DWIDTH 5 0
BBX 5 12 0 -5
BITMAP
B8
68
40
40
40
40
E0
00
20
20
20
40
ENDCHAR
STARTCHAR Rcaron
ENCODING 344
SWIDTH 667 0
DWIDTH 9 0
BBX 9 14 0 0
BITMAP
2200
1C00
0800
0000
FC00
2600
2200
2200
2600
3C00
2400
2200
2300
F180
ENDCHAR
STARTCHAR rcaron
ENCODING 345
SWIDTH 333 0
DWIDTH 5 0
BBX 5 11 0 0
BITMAP
88
70
20
00
B8
68
40
40
40
40
E0
ENDCHAR
STARTCHAR Sacute
ENCODING 346
SWIDTH 556 0
DWIDTH 8 0
BBX 6 14 1 0
BITMAP
08
18
20
00
74
CC
84
C0
70
18
04
84
CC
B8
ENDCHAR
STARTCHAR sacute
ENCODING 347
SWIDTH 389 0
DWIDTH 6 0
BBX 4 11 1 0
BITMAP
10
30
40
00
70
90
C0
60
30
90
E0
ENDCHAR
STARTCHAR Scircumflex
ENCODING 348
SWIDTH 556 0
DWIDTH 8 0
BBX 6 14 1 0
BITMAP
10
38
44
00
74
CC
84
C0
70
18
04
84
CC
B8
ENDCHAR
STARTCHAR scircumflex
ENCODING 349
SWIDTH 389 0
DWIDTH 6 0
BBX 5 11 1 0
BITMAP
20
70
88
00
70
90
C0
60
30
90
E0
ENDCHAR
STARTCHAR Scedilla
ENCODING 350
SWIDTH 556 0
DWIDTH 8 0
BBX 6 13 1 -3
BITMAP
74
CC
84
C0
70
18
04
84
CC
B8
20
10
60
ENDCHAR
STARTCHAR scedilla
ENCODING 351
SWIDTH 389 0
DWIDTH 6 0
BBX 4 10 1 -3
BITMAP
70
90
C0
60
30
90
E0
40
20
C0
ENDCHAR
STARTCHAR Scaron
ENCODING 352
SWIDTH 556 0
DWIDTH 8 0
BBX 6 14 1 0
BITMAP
44
38
10
00
74
CC
84
C0
70
18
04
84
CC
B8
ENDCHAR
STARTCHAR scaron
ENCODING 353
SWIDTH 389 0
DWIDTH 6 0
BBX 5 11 1 0
BITMAP
88
70
20
00
70
90
C0
60
30
90
E0
ENDCHAR
STARTCHAR Tcommaaccent
ENCODING 354
SWIDTH 611 0
DWIDTH 9 0
BBX 7 13 1 -3
BITMAP
FE
92
92
10
10
10
10
10
10
38
10
08
30
ENDCHAR
STARTCHAR tcommaaccent
ENCODING 355
SWIDTH 278 0
DWIDTH 4 0
BBX 4 12 0 -3
BITMAP
40
40
F0
40
40
40
40
40
30
20
10
60
ENDCHAR
STARTCHAR Tcaron
ENCODING 356
SWIDTH 611 0
DWIDTH 9 0
BBX 7 14 1 0
BITMAP
44
38
10
00
FE
92
92
10
10
10
10
10
10
38
ENDCHAR
STARTCHAR tcaron
ENCODING 357
SWIDTH 597 0
DWIDTH 8 0
BBX 7 10 0 0
BITMAP
06
42
44
F0
40
40
40
40
40
30
ENDCHAR
STARTCHAR Tbar
ENCODING 358
SWIDTH 611 0
DWIDTH 9 0
BBX 7 10 1 0
BITMAP
FE
92
92
10
38
10
10
10
10
38
ENDCHAR
STARTCHAR tbar
ENCODING 359
SWIDTH 278 0
DWIDTH 4 0
BBX 4 9 0 0
BITMAP
40
40
F0
40
40
70
40
40
30
ENDCHAR
STARTCHAR Utilde
ENCODING 360
SWIDTH 722 0
DWIDTH 10 0
BBX 8 13 1 0
BITMAP
1A
2C
00
E7
42
42
42
42
42
42
42
66
3C
ENDCHAR
STARTCHAR utilde
ENCODING 361
SWIDTH 500 0
DWIDTH 7 0
BBX 7 10 0 0
BITMAP
34
58
00
CC
44
44
44
44
6C
36
ENDCHAR
STARTCHAR Umacron
ENCODING 362
SWIDTH 722 0
DWIDTH 10 0
BBX 8 12 1 0
BITMAP
3C
00
E7
42
42
42
42
42
42
42
66
3C
ENDCHAR
STARTCHAR umacron
ENCODING 363
SWIDTH 500 0
DWIDTH 7 0
BBX 7 9 0 0
BITMAP
78
00
CC
44
44
44
44
6C
36
ENDCHAR
STARTCHAR Ubreve
ENCODING 364
SWIDTH 722 0
DWIDTH 10 0
BBX 8 14 1 0
BITMAP
24
24
18
00
E7
42
42
42
42
42
42
42
66
3C
ENDCHAR
STARTCHAR ubreve
ENCODING 365
SWIDTH 500 0
DWIDTH 7 0
BBX 7 11 0 0
BITMAP
48
48
30
00
CC
44
44
44
44
6C
36
ENDCHAR
STARTCHAR Uring
ENCODING 366
SWIDTH 722 0
DWIDTH 10 0
BBX 8 14 1 0
BITMAP
08
14
08
00
E7
42
42
42
42
42
42
42
66
3C
ENDCHAR
STARTCHAR uring
ENCODING 367
SWIDTH 500 0
DWIDTH 7 0
BBX 7 11 0 0
BITMAP
10
28
10
00
CC
44
44
44
44
6C
36
ENDCHAR
STARTCHAR Uhungarumlaut
ENCODING 368
SWIDTH 722 0
DWIDTH 10 0
BBX 8 14 1 0
BITMAP
09
1B
24
00
E7
42
42
42
42
42
42
42
66
3C
ENDCHAR
STARTCHAR uhungarumlaut
ENCODING 369
SWIDTH 500 0
DWIDTH 7 0
BBX 7 11 0 0
BITMAP
12
36
48
00
CC
44
44
44
44
6C
36
ENDCHAR
STARTCHAR Uogonek
ENCODING 370
SWIDTH 722 0
DWIDTH 10 0
BBX 8 13 1 -3
BITMAP
E7
42
42
42
42
42
42
42
66
3C
10
24
18
ENDCHAR
STARTCHAR uogonek
ENCODING 371
SWIDTH 500 0
DWIDTH 7 0
BBX 7 10 0 -3
BITMAP
CC
44
44
44
44
6C
36
10
24
18
ENDCHAR
STARTCHAR Wcircumflex
ENCODING 372
SWIDTH 944 0
DWIDTH 13 0
BBX 13 14 0 0
BITMAP
0200
0700
0880
0000
E738
4210
6230
2220
2220
3560
1540
18C0
18C0
0880
ENDCHAR
STARTCHAR wcircumflex
ENCODING 373
SWIDTH 722 0
DWIDTH 11 0
BBX 11 11 0 0
BITMAP
0400
0E00
1100
0000
EEE0
4440
4440
2480
3B80
1100
1100
ENDCHAR
STARTCHAR Ycircumflex
ENCODING 374
SWIDTH 722 0
DWIDTH 9 0
BBX 9 14 0 0
BITMAP
0800
1C00
2200
0000
E380
4100
2200
3200
1400
0800
0800
0800
0800
1C00
ENDCHAR
STARTCHAR ycircumflex
ENCODING 375
SWIDTH 500 0
DWIDTH 7 0
BBX 7 14 0 -3
BITMAP
10
38
44
00
EE
44
44
28
28
10
30
20
A0
C0
ENDCHAR
STARTCHAR Ydieresis
ENCODING 376
SWIDTH 722 0
DWIDTH 9 0
BBX 9 13 0 0
BITMAP
1200
1200
0000
E380
4100
2200
3200
1400
0800
0800
0800
0800
1C00
ENDCHAR
STARTCHAR Zacute
ENCODING 377
SWIDTH 611 0
DWIDTH 8 0
BBX 8 14 0 0
BITMAP
02
06
08
00
7F
43
46
04
08
18
30
60
C1
FF
ENDCHAR
STARTCHAR zacute
ENCODING 378
SWIDTH 444 0
DWIDTH 6 0
BBX 6 11 0 0
BITMAP
08
18
20
00
FC
88
18
30
60
C4
FC
ENDCHAR
STARTCHAR Zdotaccent
ENCODING 379
SWIDTH 611 0
DWIDTH 8 0
BBX 8 13 0 0
BITMAP
08
08
00
7F
43
46
04
08
18
30
60
C1
FF
ENDCHAR
STARTCHAR zdotaccent
ENCODING 380
SWIDTH 444 0
DWIDTH 6 0
BBX 6 10 0 0
BITMAP
20
20
00
FC
88
18
30
60
C4
FC
ENDCHAR
STARTCHAR Zcaron
ENCODING 381
SWIDTH 611 0
DWIDTH 8 0
BBX 8 14 0 0
BITMAP
22
1C
08
00
7F
43
46
04
08
18
30
60
C1
FF
ENDCHAR
STARTCHAR zcaron
ENCODING 382
SWIDTH 444 0
DWIDTH 6 0
BBX 6 11 0 0
BITMAP
88
70
20
00
FC
88
18
30
60
C4
FC
ENDCHAR
STARTCHAR Tcommaaccent
ENCODING 538
SWIDTH 611 0
DWIDTH 9 0
BBX 7 15 1 -5
BITMAP
FE
92
92
10
10
10
10
10
10
38
00
10
10
10
20
ENDCHAR
STARTCHAR tcommaaccent
ENCODING 539
SWIDTH 278 0
DWIDTH 4 0
BBX 4 14 0 -5
BITMAP
40
40
F0
40
40
40
40
40
30
00
20
20
20
40
ENDCHAR
STARTCHAR uni0374
ENCODING 884
SWIDTH 247 0
DWIDTH 4 0
BBX 4 3 0 7
BITMAP
30
60
80
ENDCHAR
STARTCHAR uni0375
ENCODING 885
SWIDTH 247 0
DWIDTH 4 0
BBX 4 3 0 -4
BITMAP
10
60
C0
ENDCHAR
STARTCHAR uni037E
ENCODING 894
SWIDTH 278 0
DWIDTH 4 0
BBX 2 9 0 -2
BITMAP
40
40
00
00
00
40
40
40
80
ENDCHAR
STARTCHAR tonos
ENCODING 900
SWIDTH 333 0
DWIDTH 5 0
BBX 3 3 1 8
BITMAP
20
60
80
ENDCHAR
STARTCHAR dieresistonos
ENCODING 901
SWIDTH 333 0
DWIDTH 5 0
BBX 4 6 1 8
BITMAP
10
30
40
00
A0
A0
ENDCHAR
STARTCHAR Alphatonos
ENCODING 902
SWIDTH 722 0
DWIDTH 11 0
BBX 11 10 -1 0
BITMAP
2200
6700
8500
0500
0880
0880
0F80
18C0
1040
38E0
ENDCHAR
STARTCHAR anoteleia
ENCODING 903
SWIDTH 250 0
DWIDTH 4 0
BBX 1 2 1 3
BITMAP
80
80
ENDCHAR
STARTCHAR Epsilontonos
ENCODING 904
SWIDTH 611 0
DWIDTH 9 0
BBX 10 10 -2 0
BITMAP
3FC0
6840
8800
0880
0F80
0880
0800
0840
0840
1FC0
ENDCHAR
STARTCHAR Etatonos
ENCODING 905
SWIDTH 722 0
DWIDTH 11 0
BBX 11 10 -1 0
BITMAP
38E0
7040
9040
1040
1FC0
1040
1040
1040
1040
38E0
ENDCHAR
STARTCHAR Iotatonos
ENCODING 906
SWIDTH 333 0
DWIDTH 5 0
BBX 6 10 -2 0
BITMAP
3C
68
88
08
08
08
08
08
08
1C
ENDCHAR
STARTCHAR Omicrontonos
ENCODING 908
SWIDTH 722 0
DWIDTH 10 0
BBX 11 10 -2 0
BITMAP
2780
6CC0
8840
1020
1020
1020
1020
0840
0CC0
0780
ENDCHAR
STARTCHAR Upsilontonos
ENCODING 910
SWIDTH 690 0
DWIDTH 9 0
BBX 11 10 -2 0
BITMAP
38E0
7040
8880
0880
0500
0200
0200
0200
0200
0700
ENDCHAR
STARTCHAR Omegatonos
ENCODING 911
SWIDTH 768 0
DWIDTH 11 0
BBX 12 10 -2 0
BITMAP
2300
6CC0
8840
1020
1020
1020
1020
0840
2490
3CF0
ENDCHAR
STARTCHAR iotadieresistonos
ENCODING 912
SWIDTH 329 0
DWIDTH 5 0
BBX 5 14 0 0
BITMAP
08
18
20
00
50
50
00
60
A0
20
20
20
28
30
ENDCHAR
STARTCHAR Alpha
ENCODING 913
SWIDTH 722 0
DWIDTH 11 0
BBX 9 10 1 0
BITMAP
0800
1C00
1400
1400
2200
2200
3E00
6300
4100
E380
ENDCHAR
STARTCHAR Beta
ENCODING 914
SWIDTH 667 0
DWIDTH 9 0
BBX 7 10 1 0
BITMAP
FC
46
42
46
7C
46
42
42
46
FC
ENDCHAR
STARTCHAR Gamma
ENCODING 915
SWIDTH 603 0
DWIDTH 9 0
BBX 7 10 1 0
BITMAP
FE
42
40
40
40
40
40
40
40
E0
ENDCHAR
STARTCHAR Delta
ENCODING 916
SWIDTH 612 0
DWIDTH 9 0
BBX 7 10 1 0
BITMAP
10
10
28
28
28
44
44
44
82
FE
ENDCHAR
STARTCHAR Epsilon
ENCODING 917
SWIDTH 611 0
DWIDTH 9 0
BBX 7 10 1 0
BITMAP
FE
42
40
44
7C
44
40
42
42
FE
ENDCHAR
STARTCHAR Zeta
ENCODING 918
SWIDTH 611 0
DWIDTH 9 0
BBX 7 10 1 0
BITMAP
FE
82
04
08
10
10
20
40
82
FE
ENDCHAR
STARTCHAR Eta
ENCODING 919
SWIDTH 722 0
DWIDTH 11 0
BBX 9 10 1 0
BITMAP
E380
4100
4100
4100
7F00
4100
4100
4100
4100
E380
ENDCHAR
STARTCHAR Theta
ENCODING 920
SWIDTH 741 0
DWIDTH 10 0
BBX 8 10 1 0
BITMAP
3C
66
42
A5
BD
A5
81
42
66
3C
ENDCHAR
STARTCHAR Iota
ENCODING 921
SWIDTH 333 0
DWIDTH 5 0
BBX 3 10 1 0
BITMAP
E0
40
40
40
40
40
40
40
40
E0
ENDCHAR
STARTCHAR Kappa
ENCODING 922
SWIDTH 722 0
DWIDTH 10 0
BBX 8 10 1 0
BITMAP
EE
44
48
50
70
50
48
44
42
E7
ENDCHAR
STARTCHAR Lambda
ENCODING 923
SWIDTH 686 0
DWIDTH 10 0
BBX 9 10 0 0
BITMAP
0800
0800
1400
3600
2200
2200
6300
4100
4100
E380
ENDCHAR
STARTCHAR Mu
ENCODING 924
SWIDTH 889 0
DWIDTH 13 0
BBX 11 10 1 0
BITMAP
E0E0
60C0
5140
5140
5B40
4A40
4A40
4E40
4440
E4E0
ENDCHAR
STARTCHAR Nu
ENCODING 925
SWIDTH 722 0
DWIDTH 11 0
BBX 9 10 1 0
BITMAP
E380
6100
5100
5900
4900
4D00
4500
4700
4300
E100
ENDCHAR
STARTCHAR Xi
ENCODING 926
SWIDTH 645 0
DWIDTH 9 0
BBX 9 10 0 0
BITMAP
7F00
4100
0000
2200
3E00
2200
0000
0000
8080
FF80
ENDCHAR
STARTCHAR Omicron
ENCODING 927
SWIDTH 722 0
DWIDTH 10 0
BBX 8 10 1 0
BITMAP
3C
66
42
81
81
81
81
42
66
3C
ENDCHAR
STARTCHAR Pi
ENCODING 928
SWIDTH 768 0
DWIDTH 11 0
BBX 9 10 1 0
BITMAP
FF80
4100
4100
4100
4100
4100
4100
4100
4100
E380
ENDCHAR
STARTCHAR Rho
ENCODING 929
SWIDTH 556 0
DWIDTH 8 0
BBX 6 10 1 0
BITMAP
F8
4C
44
44
4C
78
40
40
40
E0
ENDCHAR
STARTCHAR Sigma
ENCODING 931
SWIDTH 592 0
DWIDTH 9 0
BBX 8 10 1 0
BITMAP
FE
C2
60
30
18
10
20
40
C1
FF
ENDCHAR
STARTCHAR Tau
ENCODING 932
SWIDTH 611 0
DWIDTH 9 0
BBX 7 10 1 0
BITMAP
FE
92
92
10
10
10
10
10
10
38
ENDCHAR
STARTCHAR Upsilon
ENCODING 933
SWIDTH 690 0
DWIDTH 9 0
BBX 9 10 0 0
BITMAP
E380
4100
2200
2200
1400
0800
0800
0800
0800
1C00
ENDCHAR
STARTCHAR Phi
ENCODING 934
SWIDTH 763 0
DWIDTH 11 0
BBX 9 10 1 0
BITMAP
1C00
0800
7F00
C980
8880
8880
C980
7F00
0800
1C00
ENDCHAR
STARTCHAR Chi
ENCODING 935
SWIDTH 722 0
DWIDTH 11 0
BBX 9 10 1 0
BITMAP
E380
4100
2200
3600
1C00
1400
2200
6300
4100
E380
ENDCHAR
STARTCHAR Psi
ENCODING 936
SWIDTH 795 0
DWIDTH 11 0
BBX 11 10 0 0
BITMAP
CE60
64C0
2480
2480
1F00
0400
0400
0400
0400
0E00
ENDCHAR
STARTCHAR Omega
ENCODING 937
SWIDTH 768 0
DWIDTH 11 0
BBX 10 10 0 0
BITMAP
0C00
3300
2100
4080
4080
4080
4080
2100
9240
F3C0
ENDCHAR
STARTCHAR Iotadieresis
ENCODING 938
SWIDTH 333 0
DWIDTH 5 0
BBX 3 13 1 0
BITMAP
A0
A0
00
E0
40
40
40
40
40
40
40
40
E0
ENDCHAR
STARTCHAR Upsilondieresis
ENCODING 939
SWIDTH 690 0
DWIDTH 9 0
BBX 9 13 0 0
BITMAP
1400
1400
0000
E380
4100
2200
2200
1400
0800
0800
0800
0800
1C00
ENDCHAR
STARTCHAR alphatonos
ENCODING 940
SWIDTH 631 0
DWIDTH 9 0
BBX 8 11 1 0
BITMAP
04
0C
10
00
76
D4
88
88
88
D5
66
ENDCHAR
STARTCHAR epsilontonos
ENCODING 941
SWIDTH 439 0
DWIDTH 6 0
BBX 5 11 1 0
BITMAP
08
18
20
00
78
C8
80
60
80
C8
70
ENDCHAR
STARTCHAR etatonos
ENCODING 942
SWIDTH 603 0
DWIDTH 8 0
BBX 7 14 0 -3
BITMAP
04
0C
10
00
6C
B2
22
22
22
22
22
02
02
02
ENDCHAR
STARTCHAR iotatonos
ENCODING 943
SWIDTH 329 0
DWIDTH 5 0
BBX 5 11 0 0
BITMAP
10
30
40
00
60
A0
20
20
20
28
30
ENDCHAR
STARTCHAR upsilondieresistonos
ENCODING 944
SWIDTH 576 0
DWIDTH 8 0
BBX 7 14 0 0
BITMAP
04
0C
10
00
28
28
00
64
A2
22
22
22
26
1C
ENDCHAR
STARTCHAR alpha
ENCODING 945
SWIDTH 631 0
DWIDTH 9 0
BBX 8 7 1 0
BITMAP
76
D4
88
88
88
D5
66
ENDCHAR
STARTCHAR beta
ENCODING 946
SWIDTH 549 0
DWIDTH 8 0
BBX 6 14 1 -3
BITMAP
78
CC
84
8C
98
8C
84
84
84
CC
B8
80
80
80
ENDCHAR
STARTCHAR gamma
ENCODING 947
SWIDTH 411 0
DWIDTH 6 0
BBX 6 10 0 -3
BITMAP
C4
A4
24
28
28
18
18
10
30
30
ENDCHAR
STARTCHAR delta
ENCODING 948
SWIDTH 494 0
DWIDTH 7 0
BBX 5 11 1 0
BITMAP
70
98
80
40
70
98
88
88
88
D8
70
ENDCHAR
STARTCHAR epsilon
ENCODING 949
SWIDTH 439 0
DWIDTH 6 0
BBX 5 7 1 0
BITMAP
78
C8
80
60
80
C8
70
ENDCHAR
STARTCHAR zeta
ENCODING 950
SWIDTH 494 0
DWIDTH 7 0
BBX 6 14 1 -3
BITMAP
20
44
3C
10
20
40
40
80
80
C0
78
04
24
38
ENDCHAR
STARTCHAR eta
ENCODING 951
SWIDTH 603 0
DWIDTH 8 0
BBX 7 10 0 -3
BITMAP
6C
B2
22
22
22
22
22
02
02
02
ENDCHAR
STARTCHAR theta
ENCODING 952
SWIDTH 521 0
DWIDTH 7 0
BBX 5 10 1 0
BITMAP
70
D8
88
88
F8
88
88
88
D8
70
ENDCHAR
STARTCHAR iota
ENCODING 953
SWIDTH 329 0
DWIDTH 5 0
BBX 5 7 0 0
BITMAP
60
A0
20
20
20
28
30
ENDCHAR
STARTCHAR kappa
ENCODING 954
SWIDTH 549 0
DWIDTH 8 0
BBX 7 7 0 0
BITMAP
46
CA
50
70
58
4C
46
ENDCHAR
STARTCHAR lambda
ENCODING 955
SWIDTH 549 0
DWIDTH 8 0
BBX 8 10 1 0
BITMAP
60
50
10
10
28
28
48
44
85
83
ENDCHAR
STARTCHAR mu
ENCODING 956
SWIDTH 500 0
DWIDTH 7 0
BBX 7 10 0 -3
BITMAP
CC
44
44
44
44
6C
76
40
40
60
ENDCHAR
STARTCHAR nu
ENCODING 957
SWIDTH 521 0
DWIDTH 8 0
BBX 7 7 0 0
BITMAP
C6
42
22
22
14
14
08
ENDCHAR
STARTCHAR xi
ENCODING 958
SWIDTH 493 0
DWIDTH 7 0
BBX 6 15 1 -3
BITMAP
20
40
38
20
40
78
20
40
80
80
C0
78
04
24
38
ENDCHAR
STARTCHAR omicron
ENCODING 959
SWIDTH 549 0
DWIDTH 8 0
BBX 6 7 1 0
BITMAP
78
CC
84
84
84
CC
78
ENDCHAR
STARTCHAR pi
ENCODING 960
SWIDTH 549 0
DWIDTH 8 0
BBX 8 7 0 0
BITMAP
7E
A4
24
24
24
25
66
ENDCHAR
STARTCHAR rho
ENCODING 961
SWIDTH 549 0
DWIDTH 8 0
BBX 6 10 1 -3
BITMAP
78
CC
84
84
84
CC
B8
80
80
80
ENDCHAR
STARTCHAR sigma1
ENCODING 962
SWIDTH 439 0
DWIDTH 7 0
BBX 6 10 1 -3
BITMAP
38
C0
80
80
80
60
38
04
24
38
ENDCHAR
STARTCHAR sigma
ENCODING 963
SWIDTH 603 0
DWIDTH 8 0
BBX 7 7 1 0
BITMAP
7E
C8
84
84
84
CC
78
ENDCHAR
STARTCHAR tau
ENCODING 964
SWIDTH 439 0
DWIDTH 6 0
BBX 5 7 0 0
BITMAP
78
A0
20
20
20
28
30
ENDCHAR
STARTCHAR upsilon
ENCODING 965
SWIDTH 576 0
DWIDTH 8 0
BBX 7 7 0 0
BITMAP
64
A2
22
22
22
26
1C
ENDCHAR
STARTCHAR phi
ENCODING 966
SWIDTH 603 0
DWIDTH 9 0
BBX 7 10 1 -3
BITMAP
18
54
D2
92
92
54
38
10
10
10
ENDCHAR
STARTCHAR chi
ENCODING 967
SWIDTH 549 0
DWIDTH 8 0
BBX 8 10 0 -3
BITMAP
C3
A6
24
3C
18
38
28
64
45
C3
ENDCHAR
STARTCHAR psi
ENCODING 968
SWIDTH 686 0
DWIDTH 9 0
BBX 9 10 0 -3
BITMAP
8880
4900
4900
4900
6B00
3E00
0800
0800
0800
0800
ENDCHAR
STARTCHAR omega
ENCODING 969
SWIDTH 686 0
DWIDTH 11 0
BBX 9 7 1 0
BITMAP
6300
8880
8880
8880
8880
C980
7700
ENDCHAR
STARTCHAR iotadieresis
ENCODING 970
SWIDTH 329 0
DWIDTH 5 0
BBX 5 10 0 0
BITMAP
50
50
00
60
A0
20
20
20
28
30
ENDCHAR
STARTCHAR upsilondieresis
ENCODING 971
SWIDTH 576 0
DWIDTH 8 0
BBX 7 10 0 0
BITMAP
28
28
00
64
A2
22
22
22
26
1C
ENDCHAR
STARTCHAR omicrontonos
ENCODING 972
SWIDTH 549 0
DWIDTH 8 0
BBX 6 11 1 0
BITMAP
08
18
20
00
78
CC
84
84
84
CC
78
ENDCHAR
STARTCHAR upsilontonos
ENCODING 973
SWIDTH 576 0
DWIDTH 8 0
BBX 7 11 0 0
BITMAP
08
18
20
00
64
A2
22
22
22
26
1C
ENDCHAR
STARTCHAR omegatonos
ENCODING 974
SWIDTH 686 0
DWIDTH 11 0
BBX 9 11 1 0
BITMAP
0200
0600
0800
0000
6300
8880
8880
8880
8880
C980
7700
ENDCHAR
STARTCHAR theta1
ENCODING 977
SWIDTH 631 0
DWIDTH 9 0
BBX 8 10 0 0
BITMAP
0C
0A
0A
66
A3
22
22
22
36
1C
ENDCHAR
STARTCHAR Upsilon1
ENCODING 978
SWIDTH 620 0
DWIDTH 9 0
BBX 8 10 0 0
BITMAP
C6
69
2B
10
10
10
10
10
10
38
ENDCHAR
STARTCHAR uni03D3
ENCODING 979
SWIDTH 620 0
DWIDTH 9 0
BBX 8 14 0 0
BITMAP
04
0C
10
00
C6
69
2B
10
10
10
10
10
10
38
ENDCHAR
STARTCHAR uni03D4
ENCODING 980
SWIDTH 620 0
DWIDTH 9 0
BBX 8 13 0 0
BITMAP
14
14
00
C6
69
2B
10
10
10
10
10
10
38
ENDCHAR
STARTCHAR phi1
ENCODING 981
SWIDTH 521 0
DWIDTH 9 0
BBX 7 13 1 -3
BITMAP
10
10
10
38
54
92
92
92
54
38
10
10
10
ENDCHAR
STARTCHAR omega1
ENCODING 982
SWIDTH 713 0
DWIDTH 11 0
BBX 10 8 0 0
BITMAP
7FC0
A080
4440
4440
4440
4440
64C0
3B80
ENDCHAR
STARTCHAR uni0400
ENCODING 1024
SWIDTH 611 0
DWIDTH 9 0
BBX 7 14 1 0
BITMAP
20
30
08
00
FE
42
40
44
7C
44
40
40
42
FE
ENDCHAR
STARTCHAR afii10023
ENCODING 1025
SWIDTH 611 0
DWIDTH 9 0
BBX 7 13 1 0
BITMAP
24
24
00
FE
42
40
44
7C
44
40
40
42
FE
ENDCHAR
STARTCHAR afii10051
ENCODING 1026
SWIDTH 822 0
DWIDTH 12 0
BBX 9 13 1 -3
BITMAP
FE00
9200
1000
1700
1980
1080
1080
1080
1080
3880
0080
0100
0600
ENDCHAR
STARTCHAR afii10052
ENCODING 1027
SWIDTH 617 0
DWIDTH 9 0
BBX 7 14 1 0
BITMAP
08
18
20
00
FE
42
42
40
40
40
40
40
40
E0
ENDCHAR
STARTCHAR afii10053
ENCODING 1028
SWIDTH 685 0
DWIDTH 10 0
BBX 8 10 1 0
BITMAP
3D
63
C1
81
F8
80
80
C1
62
3C
ENDCHAR
STARTCHAR afii10054
ENCODING 1029
SWIDTH 548 0
DWIDTH 8 0
BBX 6 10 1 0
BITMAP
74
CC
84
C0
70
18
04
84
CC
B8
ENDCHAR
STARTCHAR afii10055
ENCODING 1030
SWIDTH 342 0
DWIDTH 5 0
BBX 3 10 1 0
BITMAP
E0
40
40
40
40
40
40
40
40
E0
ENDCHAR
STARTCHAR afii10056
ENCODING 1031
SWIDTH 333 0
DWIDTH 5 0
BBX 3 13 1 0
BITMAP
A0
A0
00
E0
40
40
40
40
40
40
40
40
E0
ENDCHAR
STARTCHAR afii10057
ENCODING 1032
SWIDTH 411 0
DWIDTH 6 0
BBX 4 10 1 0
BITMAP
70
20
20
20
20
20
20
20
A0
C0
ENDCHAR
STARTCHAR afii10058
ENCODING 1033
SWIDTH 822 0
DWIDTH 12 0
BBX 10 10 1 0
BITMAP
7E00
2400
2400
2400
2780
24C0
2440
2440
A4C0
CF80
ENDCHAR
STARTCHAR afii10059
ENCODING 1034
SWIDTH 822 0
DWIDTH 12 0
BBX 10 10 1 0
BITMAP
EE00
4400
4400
4400
7F80
44C0
4440
4440
44C0
EF80
ENDCHAR
STARTCHAR afii10060
ENCODING 1035
SWIDTH 822 0
DWIDTH 12 0
BBX 10 10 1 0
BITMAP
FE00
9200
1000
1700
1980
1080
1080
1080
1080
39C0
ENDCHAR
STARTCHAR afii10061
ENCODING 1036
SWIDTH 685 0
DWIDTH 10 0
BBX 8 14 2 0
BITMAP
04
0C
10
00
EE
44
48
50
60
50
48
44
42
E7
ENDCHAR
STARTCHAR uni040D
ENCODING 1037
SWIDTH 754 0
DWIDTH 11 0
BBX 9 14 1 0
BITMAP
2000
3000
0800
0000
E380
4100
4300
4500
4900
4900
5100
6100
4100
E380
ENDCHAR
STARTCHAR afii10062
ENCODING 1038
SWIDTH 617 0
DWIDTH 9 0
BBX 9 13 0 0
BITMAP
2200
1C00
0000
E380
4100
4100
2200
2200
1400
0C00
4800
4800
3000
ENDCHAR
STARTCHAR afii10145
ENCODING 1039
SWIDTH 685 0
DWIDTH 10 0
BBX 8 12 1 -2
BITMAP
E7
42
42
42
42
42
42
42
42
FF
08
08
ENDCHAR
STARTCHAR afii10017
ENCODING 1040
SWIDTH 754 0
DWIDTH 11 0
BBX 9 10 1 0
BITMAP
0800
0800
1400
1400
2200
2200
3E00
4100
4100
E380
ENDCHAR
STARTCHAR afii10018
ENCODING 1041
SWIDTH 617 0
DWIDTH 9 0
BBX 7 10 1 0
BITMAP
FE
42
42
40
7C
46
42
42
46
FC
ENDCHAR
STARTCHAR afii10019
ENCODING 1042
SWIDTH 617 0
DWIDTH 9 0
BBX 7 10 1 0
BITMAP
FC
46
42
46
7C
46
42
42
46
FC
ENDCHAR
STARTCHAR afii10020
ENCODING 1043
SWIDTH 617 0
DWIDTH 9 0
BBX 7 10 1 0
BITMAP
FE
42
42
40
40
40
40
40
40
E0
ENDCHAR
STARTCHAR afii10021
ENCODING 1044
SWIDTH 685 0
DWIDTH 10 0
BBX 8 12 1 -2
BITMAP
7F
22
22
22
22
22
22
22
42
FF
81
81
ENDCHAR
STARTCHAR afii10022
ENCODING 1045
SWIDTH 617 0
DWIDTH 9 0
BBX 7 10 1 0
BITMAP
FE
42
40
44
7C
44
40
40
42
FE
ENDCHAR
STARTCHAR afii10024
ENCODING 1046
SWIDTH 754 0
DWIDTH 11 0
BBX 11 10 0 0
BITMAP
EEE0
4440
2480
1500
0E00
0E00
1500
2480
4440
EEE0
ENDCHAR
STARTCHAR afii10025
ENCODING 1047
SWIDTH 617 0
DWIDTH 9 0
BBX 7 10 1 0
BITMAP
BC
C6
82
06
3C
06
02
82
46
3C
ENDCHAR
STARTCHAR afii10026
ENCODING 1048
SWIDTH 754 0
DWIDTH 11 0
BBX 9 10 1 0
BITMAP
E380
4100
4300
4500
4900
4900
5100
6100
4100
E380
ENDCHAR
STARTCHAR afii10027
ENCODING 1049
SWIDTH 754 0
DWIDTH 11 0
BBX 9 13 1 0
BITMAP
2200
1C00
0000
E380
4100
4300
4500
4900
4900
5100
6100
4100
E380
ENDCHAR
STARTCHAR afii10028
ENCODING 1050
SWIDTH 685 0
DWIDTH 10 0
BBX 8 10 2 0
BITMAP
EE
44
48
50
60
50
48
44
42
E7
ENDCHAR
STARTCHAR afii10029
ENCODING 1051
SWIDTH 685 0
DWIDTH 10 0
BBX 8 10 1 0
BITMAP
7F
22
22
22
22
22
22
22
A2
C7
ENDCHAR
STARTCHAR afii10030
ENCODING 1052
SWIDTH 891 0
DWIDTH 13 0
BBX 11 10 1 0
BITMAP
E0E0
60C0
5140
5140
5B40
4A40
4A40
4440
4440
E4E0
ENDCHAR
STARTCHAR afii10031
ENCODING 1053
SWIDTH 685 0
DWIDTH 10 0
BBX 8 10 1 0
BITMAP
E7
42
42
42
7E
42
42
42
42
E7
ENDCHAR
STARTCHAR afii10032
ENCODING 1054
SWIDTH 685 0
DWIDTH 10 0
BBX 8 10 1 0
BITMAP
3C
66
42
81
81
81
81
42
66
3C
ENDCHAR
STARTCHAR afii10033
ENCODING 1055
SWIDTH 685 0
DWIDTH 10 0
BBX 8 10 1 0
BITMAP
FF
42
42
42
42
42
42
42
42
E7
ENDCHAR
STARTCHAR afii10034
ENCODING 1056
SWIDTH 548 0
DWIDTH 8 0
BBX 6 10 1 0
BITMAP
F8
4C
44
44
4C
78
40
40
40
E0
ENDCHAR
STARTCHAR afii10035
ENCODING 1057
SWIDTH 685 0
DWIDTH 10 0
BBX 8 10 1 0
BITMAP
3D
63
C1
81
80
80
80
C1
62
3C
ENDCHAR
STARTCHAR afii10036
ENCODING 1058
SWIDTH 617 0
DWIDTH 9 0
BBX 7 10 1 0
BITMAP
FE
92
92
10
10
10
10
10
10
38
ENDCHAR
STARTCHAR afii10037
ENCODING 1059
SWIDTH 617 0
DWIDTH 9 0
BBX 9 10 0 0
BITMAP
E380
4100
4100
2200
2200
1400
0C00
4800
4800
3000
ENDCHAR
STARTCHAR afii10038
ENCODING 1060
SWIDTH 754 0
DWIDTH 11 0
BBX 9 10 1 0
BITMAP
1C00
0800
7F00
C980
8880
8880
C980
7F00
0800
1C00
ENDCHAR
STARTCHAR afii10039
ENCODING 1061
SWIDTH 685 0
DWIDTH 10 0
BBX 10 10 0 0
BITMAP
F3C0
2100
3200
1200
0C00
0C00
1200
2300
6180
F3C0
ENDCHAR
STARTCHAR afii10040
ENCODING 1062
SWIDTH 685 0
DWIDTH 10 0
BBX 8 12 1 -2
BITMAP
E7
42
42
42
42
42
42
42
42
FF
01
01
ENDCHAR
STARTCHAR afii10041
ENCODING 1063
SWIDTH 685 0
DWIDTH 10 0
BBX 8 10 1 0
BITMAP
E7
42
42
42
42
66
3A
02
02
07
ENDCHAR
STARTCHAR afii10042
ENCODING 1064
SWIDTH 891 0
DWIDTH 13 0
BBX 11 10 1 0
BITMAP
EEE0
4440
4440
4440
4440
4440
4440
4440
4440
FFE0
ENDCHAR
STARTCHAR afii10043
ENCODING 1065
SWIDTH 891 0
DWIDTH 13 0
BBX 11 12 1 -2
BITMAP
EEE0
4440
4440
4440
4440
4440
4440
4440
4440
FFE0
0020
0020
ENDCHAR
STARTCHAR afii10044
ENCODING 1066
SWIDTH 685 0
DWIDTH 10 0
BBX 8 10 1 0
BITMAP
F8
90
90
10
1E
13
11
11
13
3E
ENDCHAR
STARTCHAR afii10045
ENCODING 1067
SWIDTH 754 0
DWIDTH 11 0
BBX 9 10 1 0
BITMAP
E380
4100
4100
4100
7900
4D00
4500
4500
4D00
FB80
ENDCHAR
STARTCHAR afii10046
ENCODING 1068
SWIDTH 548 0
DWIDTH 8 0
BBX 6 10 1 0
BITMAP
E0
40
40
40
78
4C
44
44
4C
F8
ENDCHAR
STARTCHAR afii10047
ENCODING 1069
SWIDTH 685 0
DWIDTH 10 0
BBX 8 10 1 0
BITMAP
BC
C6
83
81
1F
01
01
83
46
3C
ENDCHAR
STARTCHAR afii10048
ENCODING 1070
SWIDTH 891 0
DWIDTH 13 0
BBX 11 10 1 0
BITMAP
E780
4CC0
4840
5020
7020
5020
5020
4840
4CC0
E780
ENDCHAR
STARTCHAR afii10049
ENCODING 1071
SWIDTH 617 0
DWIDTH 9 0
BBX 8 10 0 0
BITMAP
1F
32
22
22
32
1E
12
22
62
C7
ENDCHAR
STARTCHAR afii10065
ENCODING 1072
SWIDTH 480 0
DWIDTH 7 0
BBX 6 7 1 0
BITMAP
70
C8
18
68
88
C8
74
ENDCHAR
STARTCHAR afii10066
ENCODING 1073
SWIDTH 480 0
DWIDTH 7 0
BBX 5 10 1 0
BITMAP
08
70
80
B0
D8
88
88
88
D8
70
ENDCHAR
STARTCHAR afii10067
ENCODING 1074
SWIDTH 480 0
DWIDTH 7 0
BBX 6 7 0 0
BITMAP
F8
44
4C
78
44
4C
F8
ENDCHAR
STARTCHAR afii10068
ENCODING 1075
SWIDTH 342 0
DWIDTH 5 0
BBX 5 7 0 0
BITMAP
F8
48
40
40
40
40
E0
ENDCHAR
STARTCHAR afii10069
ENCODING 1076
SWIDTH 480 0
DWIDTH 7 0
BBX 7 8 0 -1
BITMAP
7E
24
24
24
24
44
FE
82
ENDCHAR
STARTCHAR afii10070
ENCODING 1077
SWIDTH 480 0
DWIDTH 7 0
BBX 6 7 1 0
BITMAP
70
88
F8
80
80
C4
78
ENDCHAR
STARTCHAR afii10072
ENCODING 1078
SWIDTH 617 0
DWIDTH 9 0
BBX 9 7 0 0
BITMAP
DD80
4900
2A00
3E00
2A00
4900
DD80
ENDCHAR
STARTCHAR afii10073
ENCODING 1079
SWIDTH 480 0
DWIDTH 7 0
BBX 5 7 1 0
BITMAP
F0
88
18
70
08
98
70
ENDCHAR
STARTCHAR afii10074
ENCODING 1080
SWIDTH 480 0
DWIDTH 7 0
BBX 7 7 0 0
BITMAP
EE
44
4C
54
64
44
EE
ENDCHAR
STARTCHAR afii10075
ENCODING 1081
SWIDTH 480 0
DWIDTH 7 0
BBX 7 10 0 0
BITMAP
28
38
00
EE
44
4C
54
64
44
EE
ENDCHAR
STARTCHAR afii10076
ENCODING 1082
SWIDTH 480 0
DWIDTH 7 0
BBX 7 7 0 0
BITMAP
EC
48
50
70
48
4C
E6
ENDCHAR
STARTCHAR afii10077
ENCODING 1083
SWIDTH 480 0
DWIDTH 7 0
BBX 7 7 0 0
BITMAP
7E
24
24
24
24
A4
CE
ENDCHAR
STARTCHAR afii10078
ENCODING 1084
SWIDTH 617 0
DWIDTH 9 0
BBX 9 7 0 0
BITMAP
E380
6300
5500
5500
4900
4900
EB80
ENDCHAR
STARTCHAR afii10079
ENCODING 1085
SWIDTH 480 0
DWIDTH 7 0
BBX 7 7 0 0
BITMAP
EE
44
44
7C
44
44
EE
ENDCHAR
STARTCHAR afii10080
ENCODING 1086
SWIDTH 480 0
DWIDTH 7 0
BBX 5 7 1 0
BITMAP
70
D8
88
88
88
D8
70
ENDCHAR
STARTCHAR afii10081
ENCODING 1087
SWIDTH 480 0
DWIDTH 7 0
BBX 7 7 0 0
BITMAP
FE
44
44
44
44
44
EE
ENDCHAR
STARTCHAR afii10082
ENCODING 1088
SWIDTH 480 0
DWIDTH 7 0
BBX 6 10 0 -3
BITMAP
D8
6C
44
44
44
6C
58
40
40
E0
ENDCHAR
STARTCHAR afii10083
ENCODING 1089
SWIDTH 480 0
DWIDTH 7 0
BBX 6 7 1 0
BITMAP
78
C8
80
80
80
C4
78
ENDCHAR
STARTCHAR afii10084
ENCODING 1090
SWIDTH 480 0
DWIDTH 7 0
BBX 7 7 0 0
BITMAP
FE
92
10
10
10
10
38
ENDCHAR
STARTCHAR afii10085
ENCODING 1091
SWIDTH 480 0
DWIDTH 7 0
BBX 7 10 0 -3
BITMAP
EE
44
44
28
28
10
30
20
A0
C0
ENDCHAR
STARTCHAR afii10086
ENCODING 1092
SWIDTH 754 0
DWIDTH 11 0
BBX 9 13 1 -3
BITMAP
1800
0800
0800
6B00
DD80
8880
8880
8880
DD80
6B00
0800
0800
1C00
ENDCHAR
STARTCHAR afii10087
ENCODING 1093
SWIDTH 480 0
DWIDTH 7 0
BBX 7 7 0 0
BITMAP
EE
44
38
10
38
44
EE
ENDCHAR
STARTCHAR afii10088
ENCODING 1094
SWIDTH 480 0
DWIDTH 7 0
BBX 7 8 0 -1
BITMAP
EE
44
44
44
44
44
FE
02
ENDCHAR
STARTCHAR afii10089
ENCODING 1095
SWIDTH 480 0
DWIDTH 7 0
BBX 7 7 0 0
BITMAP
EE
44
44
3C
04
04
0E
ENDCHAR
STARTCHAR afii10090
ENCODING 1096
SWIDTH 754 0
DWIDTH 11 0
BBX 11 7 0 0
BITMAP
EEE0
4440
4440
4440
4440
4440
FFE0
ENDCHAR
STARTCHAR afii10091
ENCODING 1097
SWIDTH 754 0
DWIDTH 11 0
BBX 11 8 0 -1
BITMAP
EEE0
4440
4440
4440
4440
4440
FFE0
0020
ENDCHAR
STARTCHAR afii10092
ENCODING 1098
SWIDTH 548 0
DWIDTH 8 0
BBX 7 7 0 0
BITMAP
F0
A0
20
3C
22
26
7C
ENDCHAR
STARTCHAR afii10093
ENCODING 1099
SWIDTH 617 0
DWIDTH 9 0
BBX 9 7 0 0
BITMAP
E380
4100
4100
7900
4500
4D00
FB80
ENDCHAR
STARTCHAR afii10094
ENCODING 1100
SWIDTH 480 0
DWIDTH 7 0
BBX 6 7 0 0
BITMAP
E0
40
40
78
44
4C
F8
ENDCHAR
STARTCHAR afii10095
ENCODING 1101
SWIDTH 480 0
DWIDTH 7 0
BBX 6 7 0 0
BITMAP
78
4C
04
3C
04
8C
78
ENDCHAR
STARTCHAR afii10096
ENCODING 1102
SWIDTH 617 0
DWIDTH 9 0
BBX 8 7 0 0
BITMAP
EE
5B
51
71
51
5B
EE
ENDCHAR
STARTCHAR afii10097
ENCODING 1103
SWIDTH 480 0
DWIDTH 7 0
BBX 7 7 0 0
BITMAP
3E
64
44
3C
14
24
CE
ENDCHAR
STARTCHAR uni0450
ENCODING 1104
SWIDTH 444 0
DWIDTH 7 0
BBX 6 11 1 0
BITMAP
40
60
10
00
70
98
F0
80
80
C4
78
ENDCHAR
STARTCHAR afii10071
ENCODING 1105
SWIDTH 480 0
DWIDTH 7 0
BBX 6 10 1 0
BITMAP
50
50
00
70
88
F8
80
80
C4
78
ENDCHAR
STARTCHAR afii10099
ENCODING 1106
SWIDTH 480 0
DWIDTH 7 0
BBX 6 13 0 -3
BITMAP
C0
40
F0
58
6C
44
44
44
44
E4
04
08
10
ENDCHAR
STARTCHAR afii10100
ENCODING 1107
SWIDTH 342 0
DWIDTH 5 0
BBX 5 11 0 0
BITMAP
08
18
20
00
F8
48
40
40
40
40
E0
ENDCHAR
STARTCHAR afii10101
ENCODING 1108
SWIDTH 480 0
DWIDTH 7 0
BBX 6 7 1 0
BITMAP
78
C8
80
F0
80
C4
78
ENDCHAR
STARTCHAR afii10102
ENCODING 1109
SWIDTH 411 0
DWIDTH 6 0
BBX 4 7 1 0
BITMAP
70
90
C0
60
30
90
E0
ENDCHAR
STARTCHAR afii10103
ENCODING 1110
SWIDTH 205 0
DWIDTH 3 0
BBX 3 10 0 0
BITMAP
40
40
00
C0
40
40
40
40
40
E0
ENDCHAR
STARTCHAR afii10104
ENCODING 1111
SWIDTH 278 0
DWIDTH 3 0
BBX 3 10 0 0
BITMAP
A0
A0
00
C0
40
40
40
40
40
E0
ENDCHAR
STARTCHAR afii10105
ENCODING 1112
SWIDTH 274 0
DWIDTH 4 0
BBX 3 13 0 -3
BITMAP
20
20
00
60
20
20
20
20
20
20
20
A0
C0
ENDCHAR
STARTCHAR afii10106
ENCODING 1113
SWIDTH 754 0
DWIDTH 11 0
BBX 10 7 0 0
BITMAP
7E00
2400
2400
2780
2440
A440
CF80
ENDCHAR
STARTCHAR afii10107
ENCODING 1114
SWIDTH 754 0
DWIDTH 11 0
BBX 10 7 0 0
BITMAP
EE00
4400
4400
7F80
4440
4440
EF80
ENDCHAR
STARTCHAR afii10108
ENCODING 1115
SWIDTH 480 0
DWIDTH 7 0
BBX 7 10 0 0
BITMAP
C0
40
F0
58
6C
44
44
44
44
EE
ENDCHAR
STARTCHAR afii10109
ENCODING 1116
SWIDTH 480 0
DWIDTH 7 0
BBX 7 11 0 0
BITMAP
08
18
20
00
CC
48
50
70
48
4C
E6
ENDCHAR
STARTCHAR uni045D
ENCODING 1117
SWIDTH 480 0
DWIDTH 7 0
BBX 7 11 0 0
BITMAP
40
60
10
00
EE
44
4C
54
64
44
EE
ENDCHAR
STARTCHAR afii10110
ENCODING 1118
SWIDTH 480 0
DWIDTH 7 0
BBX 7 13 0 -3
BITMAP
28
38
00
EE
44
44
28
28
10
30
20
A0
C0
ENDCHAR
STARTCHAR afii10193
ENCODING 1119
SWIDTH 480 0
DWIDTH 7 0
BBX 7 9 0 -2
BITMAP
EE
44
44
44
44
44
FE
10
10
ENDCHAR
STARTCHAR uni0460
ENCODING 1120
SWIDTH 891 0
DWIDTH 13 0
BBX 11 10 1 0
BITMAP
3180
5140
4040
8020
8420
8420
8420
4440
6EC0
3B80
ENDCHAR
STARTCHAR uni0461
ENCODING 1121
SWIDTH 754 0
DWIDTH 11 0
BBX 9 7 1 0
BITMAP
4100
8880
8880
8880
8880
C980
7700
ENDCHAR
STARTCHAR afii10146
ENCODING 1122
SWIDTH 617 0
DWIDTH 9 0
BBX 7 10 1 0
BITMAP
70
20
F8
20
3C
26
22
22
26
7C
ENDCHAR
STARTCHAR afii10194
ENCODING 1123
SWIDTH 548 0
DWIDTH 8 0
BBX 7 10 0 0
BITMAP
70
20
20
F8
A8
20
3C
22
22
7C
ENDCHAR
STARTCHAR uni0464
ENCODING 1124
SWIDTH 960 0
DWIDTH 14 0
BBX 12 10 1 0
BITMAP
E3D0
4630
4C10
4810
7F80
4800
4800
4C10
4620
E3C0
ENDCHAR
STARTCHAR uni0465
ENCODING 1125
SWIDTH 685 0
DWIDTH 10 0
BBX 10 7 0 0
BITMAP
E780
4C80
4800
7F00
4800
4C40
E780
ENDCHAR
STARTCHAR uni0466
ENCODING 1126
SWIDTH 754 0
DWIDTH 11 0
BBX 11 10 0 0
BITMAP
0400
0400
0A00
0A00
1100
1B00
2480
2480
4440
EEE0
ENDCHAR
STARTCHAR uni0467
ENCODING 1127
SWIDTH 617 0
DWIDTH 9 0
BBX 9 7 0 0
BITMAP
0800
1400
1400
3600
2A00
4900
EB80
ENDCHAR
STARTCHAR uni0468
ENCODING 1128
SWIDTH 960 0
DWIDTH 14 0
BBX 14 10 0 0
BITMAP
E080
4080
4140
4140
4220
7F60
4490
4490
4888
FDDC
ENDCHAR
STARTCHAR uni0469
ENCODING 1129
SWIDTH 822 0
DWIDTH 12 0
BBX 12 7 0 0
BITMAP
E100
4280
4280
7EC0
4540
4920
FD70
ENDCHAR
STARTCHAR uni046A
ENCODING 1130
SWIDTH 754 0
DWIDTH 11 0
BBX 11 10 0 0
BITMAP
7FC0
2080
1100
1100
0A00
0E00
1500
2480
4440
EEE0
ENDCHAR
STARTCHAR uni046B
ENCODING 1131
SWIDTH 617 0
DWIDTH 9 0
BBX 9 7 0 0
BITMAP
7F00
4100
2200
3E00
2A00
4900
DD80
ENDCHAR
STARTCHAR uni046C
ENCODING 1132
SWIDTH 960 0
DWIDTH 14 0
BBX 14 10 0 0
BITMAP
EFF8
4410
4220
4220
4140
7FC0
42A0
4490
4888
FDDC
ENDCHAR
STARTCHAR uni046D
ENCODING 1133
SWIDTH 822 0
DWIDTH 12 0
BBX 12 7 0 0
BITMAP
EFE0
4820
4440
7FC0
4540
4920
FBB0
ENDCHAR
STARTCHAR uni046E
ENCODING 1134
SWIDTH 617 0
DWIDTH 9 0
BBX 7 17 1 -3
BITMAP
44
38
10
00
7C
86
02
06
3C
46
02
02
06
7C
C0
7C
02
ENDCHAR
STARTCHAR uni046F
ENCODING 1135
SWIDTH 480 0
DWIDTH 7 0
BBX 5 14 1 -3
BITMAP
88
70
20
00
F0
88
18
F0
08
18
70
80
70
08
ENDCHAR
STARTCHAR uni0470
ENCODING 1136
SWIDTH 754 0
DWIDTH 11 0
BBX 11 10 0 0
BITMAP
0E00
0400
8420
4440
4440
4440
64C0
3F80
0400
0E00
ENDCHAR
STARTCHAR uni0471
ENCODING 1137
SWIDTH 617 0
DWIDTH 9 0
BBX 8 13 0 -3
BITMAP
08
08
08
89
49
49
49
49
49
3E
08
08
08
ENDCHAR
STARTCHAR afii10147
ENCODING 1138
SWIDTH 685 0
DWIDTH 10 0
BBX 8 10 1 0
BITMAP
3C
66
42
81
FF
81
81
42
66
3C
ENDCHAR
STARTCHAR afii10195
ENCODING 1139
SWIDTH 480 0
DWIDTH 7 0
BBX 5 7 1 0
BITMAP
70
D8
88
F8
88
D8
70
ENDCHAR
STARTCHAR afii10148
ENCODING 1140
SWIDTH 685 0
DWIDTH 10 0
BBX 10 10 0 0
BITMAP
E080
4140
6300
2200
2200
3600
1400
1C00
0800
0800
ENDCHAR
STARTCHAR afii10196
ENCODING 1141
SWIDTH 548 0
DWIDTH 8 0
BBX 8 7 0 0
BITMAP
E2
45
44
28
28
10
10
ENDCHAR
STARTCHAR uni0476
ENCODING 1142
SWIDTH 685 0
DWIDTH 10 0
BBX 10 14 0 0
BITMAP
4800
6C00
1200
0000
E080
4140
6300
2200
2200
3600
1400
1C00
0800
0800
ENDCHAR
STARTCHAR uni0477
ENCODING 1143
SWIDTH 548 0
DWIDTH 8 0
BBX 8 11 0 0
BITMAP
90
D8
24
00
E2
45
44
28
28
10
10
ENDCHAR
STARTCHAR uni0478
ENCODING 1144
SWIDTH 1028 0
DWIDTH 15 0
BBX 14 13 1 -3
BITMAP
3000
6800
4C00
87C4
8288
8288
C250
6450
2C20
1860
0040
0040
0080
ENDCHAR
STARTCHAR uni0479
ENCODING 1145
SWIDTH 960 0
DWIDTH 14 0
BBX 13 10 1 -3
BITMAP
6710
D228
8A20
8940
8940
5880
3180
0100
0100
0200
ENDCHAR
STARTCHAR uni047A
ENCODING 1146
SWIDTH 754 0
DWIDTH 11 0
BBX 9 12 1 -1
BITMAP
0800
3E00
6B00
4100
8080
8080
8080
8080
4100
6B00
3E00
0800
ENDCHAR
STARTCHAR uni047B
ENCODING 1147
SWIDTH 617 0
DWIDTH 9 0
BBX 7 9 1 -1
BITMAP
10
7C
D6
82
82
82
D6
7C
10
ENDCHAR
STARTCHAR uni047C
ENCODING 1148
SWIDTH 891 0
DWIDTH 13 0
BBX 11 14 1 0
BITMAP
0100
1F00
1000
0000
3180
5140
4040
8020
8420
8420
8420
4440
6EC0
3B80
ENDCHAR
STARTCHAR uni047D
ENCODING 1149
SWIDTH 754 0
DWIDTH 11 0
BBX 9 11 1 0
BITMAP
0200
3E00
2000
0000
4100
8880
8880
8880
8880
C980
7700
ENDCHAR
STARTCHAR uni047E
ENCODING 1150
SWIDTH 891 0
DWIDTH 13 0
BBX 11 13 1 0
BITMAP
1F00
1500
0000
3180
5140
4040
8020
8420
8420
8420
4440
6EC0
3B80
ENDCHAR
STARTCHAR uni047F
ENCODING 1151
SWIDTH 754 0
DWIDTH 11 0
BBX 9 10 1 0
BITMAP
3E00
2A00
0000
4100
8880
8880
8880
8880
C980
7700
ENDCHAR
STARTCHAR uni0480
ENCODING 1152
SWIDTH 685 0
DWIDTH 10 0
BBX 8 12 1 -2
BITMAP
3D
63
C1
81
80
80
C0
60
3C
04
04
0E
ENDCHAR
STARTCHAR uni0481
ENCODING 1153
SWIDTH 480 0
DWIDTH 7 0
BBX 5 8 1 -1
BITMAP
78
C8
80
80
C0
70
10
10
ENDCHAR
STARTCHAR uni0482
ENCODING 1154
SWIDTH 548 0
DWIDTH 8 0
BBX 8 10 0 0
BITMAP
06
34
0C
0B
18
D0
30
2C
60
40
ENDCHAR
STARTCHAR uni0483
ENCODING 1155
SWIDTH 274 0
DWIDTH 4 0
BBX 4 3 0 8
BITMAP
10
F0
80
ENDCHAR
STARTCHAR uni0484
ENCODING 1156
SWIDTH 342 0
DWIDTH 5 0
BBX 5 3 0 8
BITMAP
30
68
C8
ENDCHAR
STARTCHAR uni0485
ENCODING 1157
SWIDTH 274 0
DWIDTH 4 0
BBX 4 3 0 8
BITMAP
80
F0
80
ENDCHAR
STARTCHAR uni0486
ENCODING 1158
SWIDTH 274 0
DWIDTH 4 0
BBX 4 3 0 8
BITMAP
10
F0
10
ENDCHAR
STARTCHAR uni0488
ENCODING 1160
SWIDTH 891 0
DWIDTH 13 0
BBX 13 12 0 -1
BITMAP
0200
0500
2020
5050
0000
4010
A028
0000
2020
5050
0200
0500
ENDCHAR
STARTCHAR uni0489
ENCODING 1161
SWIDTH 891 0
DWIDTH 13 0
BBX 13 14 0 -2
BITMAP
0200
0400
4660
5080
2040
0000
A030
6028
0000
2020
1050
6310
0100
0200
ENDCHAR
STARTCHAR uni048C
ENCODING 1164
SWIDTH 548 0
DWIDTH 8 0
BBX 6 11 1 0
BITMAP
40
E0
40
40
40
78
4C
44
44
4C
F8
ENDCHAR
STARTCHAR uni048D
ENCODING 1165
SWIDTH 480 0
DWIDTH 7 0
BBX 6 8 0 0
BITMAP
40
E0
40
40
78
44
4C
F8
ENDCHAR
STARTCHAR uni048E
ENCODING 1166
SWIDTH 548 0
DWIDTH 8 0
BBX 6 10 1 0
BITMAP
F8
4C
44
54
4C
78
44
40
40
E0
ENDCHAR
STARTCHAR uni048F
ENCODING 1167
SWIDTH 480 0
DWIDTH 7 0
BBX 6 10 0 -3
BITMAP
D8
6C
44
44
54
6C
58
44
40
E0
ENDCHAR
STARTCHAR afii10050
ENCODING 1168
SWIDTH 617 0
DWIDTH 9 0
BBX 7 12 1 0
BITMAP
02
02
FE
40
40
40
40
40
40
40
40
E0
ENDCHAR
STARTCHAR afii10098
ENCODING 1169
SWIDTH 342 0
DWIDTH 5 0
BBX 5 8 0 0
BITMAP
08
F8
40
40
40
40
40
E0
ENDCHAR
STARTCHAR uni0492
ENCODING 1170
SWIDTH 617 0
DWIDTH 9 0
BBX 8 10 0 0
BITMAP
7F
21
21
20
F8
20
20
20
20
70
ENDCHAR
STARTCHAR uni0493
ENCODING 1171
SWIDTH 342 0
DWIDTH 5 0
BBX 5 7 0 0
BITMAP
F8
48
40
F0
40
40
E0
ENDCHAR
STARTCHAR uni0494
ENCODING 1172
SWIDTH 617 0
DWIDTH 9 0
BBX 7 13 1 -3
BITMAP
FE
42
42
40
58
64
42
42
42
E2
02
14
18
ENDCHAR
STARTCHAR uni0495
ENCODING 1173
SWIDTH 342 0
DWIDTH 5 0
BBX 5 10 0 -3
BITMAP
F8
48
40
50
68
48
E8
08
28
30
ENDCHAR
STARTCHAR uni0496
ENCODING 1174
SWIDTH 754 0
DWIDTH 11 0
BBX 11 12 0 -2
BITMAP
EEE0
4440
2480
1500
0E00
0E00
1500
2480
4440
EEE0
0020
0020
ENDCHAR
STARTCHAR uni0497
ENCODING 1175
SWIDTH 617 0
DWIDTH 9 0
BBX 9 9 0 -2
BITMAP
DD80
4900
2A00
3E00
2A00
4900
DD80
0080
0080
ENDCHAR
STARTCHAR uni0498
ENCODING 1176
SWIDTH 617 0
DWIDTH 9 0
BBX 7 13 1 -3
BITMAP
BC
C6
82
06
3C
06
02
82
46
3C
08
04
18
ENDCHAR
STARTCHAR uni0499
ENCODING 1177
SWIDTH 480 0
DWIDTH 7 0
BBX 5 10 1 -3
BITMAP
F0
88
18
70
08
98
70
20
10
60
ENDCHAR
STARTCHAR uni049A
ENCODING 1178
SWIDTH 685 0
DWIDTH 10 0
BBX 8 12 2 -2
BITMAP
EE
44
48
50
60
50
48
44
42
E7
01
01
ENDCHAR
STARTCHAR uni049B
ENCODING 1179
SWIDTH 480 0
DWIDTH 7 0
BBX 7 9 0 -2
BITMAP
CC
48
50
70
48
4C
E6
02
02
ENDCHAR
STARTCHAR uni049C
ENCODING 1180
SWIDTH 754 0
DWIDTH 11 0
BBX 9 10 2 0
BITMAP
E700
4200
5400
5400
7800
5400
5200
4200
4100
E380
ENDCHAR
STARTCHAR uni049D
ENCODING 1181
SWIDTH 548 0
DWIDTH 8 0
BBX 8 7 0 0
BITMAP
C6
54
58
78
54
56
E3
ENDCHAR
STARTCHAR uni049E
ENCODING 1182
SWIDTH 685 0
DWIDTH 10 0
BBX 8 10 2 0
BITMAP
EE
44
E8
50
60
50
48
44
42
E7
ENDCHAR
STARTCHAR uni049F
ENCODING 1183
SWIDTH 480 0
DWIDTH 7 0
BBX 7 10 0 0
BITMAP
C0
40
E0
4C
48
70
50
48
4C
E6
ENDCHAR
STARTCHAR uni04A0
ENCODING 1184
SWIDTH 754 0
DWIDTH 11 0
BBX 10 10 1 0
BITMAP
FB80
9100
9200
1400
1800
1400
1200
1100
1080
39C0
ENDCHAR
STARTCHAR uni04A1
ENCODING 1185
SWIDTH 548 0
DWIDTH 8 0
BBX 8 7 0 0
BITMAP
E6
A4
28
38
24
26
73
ENDCHAR
STARTCHAR uni04A2
ENCODING 1186
SWIDTH 685 0
DWIDTH 10 0
BBX 8 12 1 -2
BITMAP
E7
42
42
42
7E
42
42
42
42
E7
01
01
ENDCHAR
STARTCHAR uni04A3
ENCODING 1187
SWIDTH 480 0
DWIDTH 7 0
BBX 7 8 0 -1
BITMAP
EE
44
44
7C
44
44
EE
02
ENDCHAR
STARTCHAR uni04A4
ENCODING 1188
SWIDTH 891 0
DWIDTH 13 0
BBX 11 10 1 0
BITMAP
E7E0
4220
4220
4200
7E00
4200
4200
4200
4200
E700
ENDCHAR
STARTCHAR uni04A5
ENCODING 1189
SWIDTH 617 0
DWIDTH 9 0
BBX 9 7 0 0
BITMAP
EF80
4480
4400
7C00
4400
4400
EE00
ENDCHAR
STARTCHAR uni04A6
ENCODING 1190
SWIDTH 891 0
DWIDTH 13 0
BBX 11 13 1 -3
BITMAP
FF00
4200
4200
4200
42C0
4320
4220
4220
4220
E720
0020
0140
0180
ENDCHAR
STARTCHAR uni04A7
ENCODING 1191
SWIDTH 685 0
DWIDTH 10 0
BBX 9 10 0 -3
BITMAP
FE00
4400
4400
4500
4680
4480
EE80
0080
0280
0300
ENDCHAR
STARTCHAR uni04A8
ENCODING 1192
SWIDTH 685 0
DWIDTH 10 0
BBX 9 10 1 0
BITMAP
3E00
6100
4600
8900
8900
8900
8900
4A00
6600
3D80
ENDCHAR
STARTCHAR uni04A9
ENCODING 1193
SWIDTH 548 0
DWIDTH 8 0
BBX 7 7 1 0
BITMAP
78
C4
98
94
94
C8
76
ENDCHAR
STARTCHAR uni04AA
ENCODING 1194
SWIDTH 667 0
DWIDTH 10 0
BBX 8 13 1 -3
BITMAP
3D
63
41
81
80
80
80
C1
62
3C
10
08
30
ENDCHAR
STARTCHAR uni04AB
ENCODING 1195
SWIDTH 444 0
DWIDTH 7 0
BBX 6 10 1 -3
BITMAP
70
C8
80
80
80
C4
78
20
10
60
ENDCHAR
STARTCHAR uni04AC
ENCODING 1196
SWIDTH 617 0
DWIDTH 9 0
BBX 7 12 1 -2
BITMAP
FE
92
92
10
10
10
10
10
10
38
08
08
ENDCHAR
STARTCHAR uni04AD
ENCODING 1197
SWIDTH 548 0
DWIDTH 8 0
BBX 7 8 1 -1
BITMAP
FE
92
10
10
10
10
38
08
ENDCHAR
STARTCHAR uni04AE
ENCODING 1198
SWIDTH 617 0
DWIDTH 9 0
BBX 9 10 0 0
BITMAP
E380
4100
2200
3200
1400
0800
0800
0800
0800
1C00
ENDCHAR
STARTCHAR uni04AF
ENCODING 1199
SWIDTH 480 0
DWIDTH 7 0
BBX 7 10 0 -3
BITMAP
EE
44
44
28
28
10
10
10
10
38
ENDCHAR
STARTCHAR uni04B0
ENCODING 1200
SWIDTH 617 0
DWIDTH 9 0
BBX 9 10 0 0
BITMAP
E380
4100
2200
2200
1400
0800
3E00
0800
0800
1C00
ENDCHAR
STARTCHAR uni04B1
ENCODING 1201
SWIDTH 480 0
DWIDTH 7 0
BBX 7 10 0 -3
BITMAP
EE
44
44
28
28
10
7C
10
10
38
ENDCHAR
STARTCHAR uni04B2
ENCODING 1202
SWIDTH 685 0
DWIDTH 10 0
BBX 10 12 0 -2
BITMAP
F3C0
2100
3200
1200
0C00
0C00
1200
2300
6180
F3C0
0040
0040
ENDCHAR
STARTCHAR uni04B3
ENCODING 1203
SWIDTH 480 0
DWIDTH 7 0
BBX 7 8 0 -1
BITMAP
EE
44
38
10
38
44
EE
02
ENDCHAR
STARTCHAR uni04B4
ENCODING 1204
SWIDTH 822 0
DWIDTH 12 0
BBX 10 12 1 -2
BITMAP
FEC0
9280
9280
1080
1080
1080
1080
1080
1080
3FC0
0040
0040
ENDCHAR
STARTCHAR uni04B5
ENCODING 1205
SWIDTH 685 0
DWIDTH 10 0
BBX 9 8 1 -1
BITMAP
FD80
9500
1100
1100
1100
1100
3F80
0080
ENDCHAR
STARTCHAR uni04B6
ENCODING 1206
SWIDTH 685 0
DWIDTH 10 0
BBX 8 12 1 -2
BITMAP
E7
42
42
42
42
66
3A
02
02
07
01
01
ENDCHAR
STARTCHAR uni04B7
ENCODING 1207
SWIDTH 480 0
DWIDTH 7 0
BBX 7 8 0 -1
BITMAP
EE
44
44
3C
04
04
0E
02
ENDCHAR
STARTCHAR uni04B8
ENCODING 1208
SWIDTH 685 0
DWIDTH 10 0
BBX 8 10 1 0
BITMAP
E7
42
42
42
52
56
3A
12
12
07
ENDCHAR
STARTCHAR uni04B9
ENCODING 1209
SWIDTH 480 0
DWIDTH 7 0
BBX 7 7 0 0
BITMAP
EE
44
54
3C
14
04
0E
ENDCHAR
STARTCHAR uni04BA
ENCODING 1210
SWIDTH 685 0
DWIDTH 10 0
BBX 8 10 1 0
BITMAP
E0
40
40
5C
66
42
42
42
42
E7
ENDCHAR
STARTCHAR uni04BB
ENCODING 1211
SWIDTH 480 0
DWIDTH 7 0
BBX 7 7 0 0
BITMAP
E0
40
40
78
44
44
EE
ENDCHAR
STARTCHAR uni04BC
ENCODING 1212
SWIDTH 822 0
DWIDTH 12 0
BBX 10 10 1 0
BITMAP
0F00
9980
9080
A040
7FC0
2000
2000
1040
1880
0F00
ENDCHAR
STARTCHAR uni04BD
ENCODING 1213
SWIDTH 548 0
DWIDTH 8 0
BBX 8 7 0 0
BITMAP
9C
A2
7E
20
20
31
1E
ENDCHAR
STARTCHAR uni04BE
ENCODING 1214
SWIDTH 822 0
DWIDTH 12 0
BBX 10 13 1 -3
BITMAP
0F00
9980
9080
A040
7FC0
2000
2000
1040
1880
0F00
0400
0800
0600
ENDCHAR
STARTCHAR uni04BF
ENCODING 1215
SWIDTH 548 0
DWIDTH 8 0
BBX 8 10 0 -3
BITMAP
9C
A2
7E
20
20
31
1E
08
10
0C
ENDCHAR
STARTCHAR uni04C0
ENCODING 1216
SWIDTH 342 0
DWIDTH 5 0
BBX 3 10 1 0
BITMAP
E0
40
40
40
40
40
40
40
40
E0
ENDCHAR
STARTCHAR uni04C1
ENCODING 1217
SWIDTH 754 0
DWIDTH 11 0
BBX 11 13 0 0
BITMAP
1100
0E00
0000
EEE0
4440
2480
1500
0E00
0E00
1500
2480
4440
EEE0
ENDCHAR
STARTCHAR uni04C2
ENCODING 1218
SWIDTH 617 0
DWIDTH 9 0
BBX 9 10 0 0
BITMAP
2200
1C00
0000
DD80
4900
2A00
3E00
2A00
4900
DD80
ENDCHAR
STARTCHAR uni04C3
ENCODING 1219
SWIDTH 685 0
DWIDTH 10 0
BBX 7 13 2 -3
BITMAP
EE
44
48
50
70
48
44
42
42
E2
02
14
18
ENDCHAR
STARTCHAR uni04C4
ENCODING 1220
SWIDTH 480 0
DWIDTH 7 0
BBX 6 10 0 -3
BITMAP
CC
48
50
70
48
44
E4
04
14
18
ENDCHAR
STARTCHAR uni04C7
ENCODING 1223
SWIDTH 685 0
DWIDTH 10 0
BBX 8 13 1 -3
BITMAP
E7
42
42
42
7E
42
42
42
42
E2
02
0A
0C
ENDCHAR
STARTCHAR uni04C8
ENCODING 1224
SWIDTH 480 0
DWIDTH 7 0
BBX 7 10 0 -3
BITMAP
EE
44
44
7C
44
44
E4
04
14
18
ENDCHAR
STARTCHAR uni04CB
ENCODING 1227
SWIDTH 685 0
DWIDTH 10 0
BBX 8 12 1 -2
BITMAP
E7
42
42
42
42
66
3A
02
02
07
04
04
ENDCHAR
STARTCHAR uni04CC
ENCODING 1228
SWIDTH 480 0
DWIDTH 7 0
BBX 7 8 0 -1
BITMAP
EE
44
44
3C
04
04
0E
08
ENDCHAR
STARTCHAR uni04D0
ENCODING 1232
SWIDTH 754 0
DWIDTH 11 0
BBX 9 13 1 0
BITMAP
2200
1C00
0000
0800
0800
1400
1400
2200
2200
3E00
4100
4100
E380
ENDCHAR
STARTCHAR uni04D1
ENCODING 1233
SWIDTH 480 0
DWIDTH 7 0
BBX 6 10 1 0
BITMAP
50
70
00
70
C8
18
68
88
C8
74
ENDCHAR
STARTCHAR uni04D2
ENCODING 1234
SWIDTH 722 0
DWIDTH 11 0
BBX 9 13 1 0
BITMAP
2400
2400
0000
0800
0800
1400
1400
2200
2200
3E00
4100
4100
E380
ENDCHAR
STARTCHAR uni04D3
ENCODING 1235
SWIDTH 444 0
DWIDTH 7 0
BBX 6 10 1 0
BITMAP
50
50
00
70
C8
18
68
88
C8
74
ENDCHAR
STARTCHAR uni04D4
ENCODING 1236
SWIDTH 889 0
DWIDTH 13 0
BBX 11 10 1 0
BITMAP
1FE0
0C20
1400
1440
27C0
2440
3C00
4420
4420
EFE0
ENDCHAR
STARTCHAR uni04D5
ENCODING 1237
SWIDTH 667 0
DWIDTH 11 0
BBX 9 7 1 0
BITMAP
7F00
C980
1F00
6800
8800
CC80
7700
ENDCHAR
STARTCHAR uni04D6
ENCODING 1238
SWIDTH 617 0
DWIDTH 9 0
BBX 7 13 1 0
BITMAP
44
38
00
FE
42
40
44
7C
44
40
40
42
FE
ENDCHAR
STARTCHAR uni04D7
ENCODING 1239
SWIDTH 480 0
DWIDTH 7 0
BBX 6 10 1 0
BITMAP
50
70
00
70
88
F8
80
80
C4
78
ENDCHAR
STARTCHAR uni04D8
ENCODING 1240
SWIDTH 685 0
DWIDTH 10 0
BBX 8 10 1 0
BITMAP
3C
46
82
01
01
FF
81
42
66
3C
ENDCHAR
STARTCHAR uni04D9
ENCODING 1241
SWIDTH 480 0
DWIDTH 7 0
BBX 6 7 0 0
BITMAP
78
8C
04
04
7C
44
38
ENDCHAR
STARTCHAR uni04DA
ENCODING 1242
SWIDTH 685 0
DWIDTH 10 0
BBX 8 13 1 0
BITMAP
24
24
00
3C
46
82
01
01
FF
81
42
66
3C
ENDCHAR
STARTCHAR uni04DB
ENCODING 1243
SWIDTH 480 0
DWIDTH 7 0
BBX 6 10 0 0
BITMAP
28
28
00
78
8C
04
04
7C
44
38
ENDCHAR
STARTCHAR uni04DC
ENCODING 1244
SWIDTH 754 0
DWIDTH 11 0
BBX 11 13 0 0
BITMAP
1100
1100
0000
EEE0
4440
2480
1500
0E00
0E00
1500
2480
4440
EEE0
ENDCHAR
STARTCHAR uni04DD
ENCODING 1245
SWIDTH 617 0
DWIDTH 9 0
BBX 9 10 0 0
BITMAP
2200
2200
0000
DD80
4900
2A00
3E00
2A00
4900
DD80
ENDCHAR
STARTCHAR uni04DE
ENCODING 1246
SWIDTH 617 0
DWIDTH 9 0
BBX 7 13 1 0
BITMAP
24
24
00
BC
C6
82
06
3C
06
02
82
46
3C
ENDCHAR
STARTCHAR uni04DF
ENCODING 1247
SWIDTH 480 0
DWIDTH 7 0
BBX 5 10 1 0
BITMAP
50
50
00
F0
88
18
70
08
98
70
ENDCHAR
STARTCHAR uni04E0
ENCODING 1248
SWIDTH 617 0
DWIDTH 9 0
BBX 7 10 1 0
BITMAP
FE
04
08
10
3C
06
02
82
46
3C
ENDCHAR
STARTCHAR uni04E1
ENCODING 1249
SWIDTH 480 0
DWIDTH 7 0
BBX 6 10 0 -3
BITMAP
7C
04
08
10
38
0C
04
04
8C
78
ENDCHAR
STARTCHAR uni04E2
ENCODING 1250
SWIDTH 754 0
DWIDTH 11 0
BBX 9 12 1 0
BITMAP
3E00
0000
E380
4100
4300
4500
4900
4900
5100
6100
4100
E380
ENDCHAR
STARTCHAR uni04E3
ENCODING 1251
SWIDTH 480 0
DWIDTH 7 0
BBX 7 9 0 0
BITMAP
7C
00
EE
44
4C
54
64
44
EE
ENDCHAR
STARTCHAR uni04E4
ENCODING 1252
SWIDTH 754 0
DWIDTH 11 0
BBX 9 13 1 0
BITMAP
2400
2400
0000
E380
4100
4300
4500
4900
4900
5100
6100
4100
E380
ENDCHAR
STARTCHAR uni04E5
ENCODING 1253
SWIDTH 480 0
DWIDTH 7 0
BBX 7 10 0 0
BITMAP
28
28
00
EE
44
4C
54
64
44
EE
ENDCHAR
STARTCHAR uni04E6
ENCODING 1254
SWIDTH 722 0
DWIDTH 10 0
BBX 8 13 1 0
BITMAP
24
24
00
3C
66
42
81
81
81
81
42
66
3C
ENDCHAR
STARTCHAR uni04E7
ENCODING 1255
SWIDTH 500 0
DWIDTH 7 0
BBX 5 10 1 0
BITMAP
50
50
00
70
D8
88
88
88
D8
70
ENDCHAR
STARTCHAR uni04E8
ENCODING 1256
SWIDTH 685 0
DWIDTH 10 0
BBX 8 10 1 0
BITMAP
3C
66
42
81
FF
81
81
42
66
3C
ENDCHAR
STARTCHAR uni04E9
ENCODING 1257
SWIDTH 480 0
DWIDTH 7 0
BBX 5 7 1 0
BITMAP
70
D8
88
F8
88
D8
70
ENDCHAR
STARTCHAR uni04EA
ENCODING 1258
SWIDTH 685 0
DWIDTH 10 0
BBX 8 13 1 0
BITMAP
24
24
00
3C
66
42
81
FF
81
81
42
66
3C
ENDCHAR
STARTCHAR uni04EB
ENCODING 1259
SWIDTH 480 0
DWIDTH 7 0
BBX 5 10 1 0
BITMAP
50
50
00
70
D8
88
F8
88
D8
70
ENDCHAR
STARTCHAR uni04EC
ENCODING 1260
SWIDTH 685 0
DWIDTH 10 0
BBX 8 13 1 0
BITMAP
24
24
00
BC
C6
83
81
1F
01
01
83
46
3C
ENDCHAR
STARTCHAR uni04ED
ENCODING 1261
SWIDTH 480 0
DWIDTH 7 0
BBX 6 10 0 0
BITMAP
28
28
00
78
4C
04
3C
04
8C
78
ENDCHAR
STARTCHAR uni04EE
ENCODING 1262
SWIDTH 617 0
DWIDTH 9 0
BBX 9 12 0 0
BITMAP
3E00
0000
E380
4100
4100
2200
2200
1400
0C00
4800
4800
3000
ENDCHAR
STARTCHAR uni04EF
ENCODING 1263
SWIDTH 480 0
DWIDTH 7 0
BBX 7 12 0 -3
BITMAP
7C
00
EE
44
44
28
28
10
30
20
A0
C0
ENDCHAR
STARTCHAR uni04F0
ENCODING 1264
SWIDTH 617 0
DWIDTH 9 0
BBX 9 13 0 0
BITMAP
2400
2400
0000
E380
4100
4100
2200
2200
1400
0C00
4800
4800
3000
ENDCHAR
STARTCHAR uni04F1
ENCODING 1265
SWIDTH 480 0
DWIDTH 7 0
BBX 7 13 0 -3
BITMAP
28
28
00
EE
44
44
28
28
10
30
20
A0
C0
ENDCHAR
STARTCHAR uni04F2
ENCODING 1266
SWIDTH 617 0
DWIDTH 9 0
BBX 9 14 0 0
BITMAP
0900
1B00
2400
0000
E380
4100
4100
2200
2200
1400
0C00
4800
4800
3000
ENDCHAR
STARTCHAR uni04F3
ENCODING 1267
SWIDTH 480 0
DWIDTH 7 0
BBX 7 14 0 -3
BITMAP
12
36
48
00
EE
44
44
28
28
10
30
20
A0
C0
ENDCHAR
STARTCHAR uni04F4
ENCODING 1268
SWIDTH 685 0
DWIDTH 10 0
BBX 8 13 1 0
BITMAP
24
24
00
E7
42
42
42
42
66
3A
02
02
07
ENDCHAR
STARTCHAR uni04F5
ENCODING 1269
SWIDTH 480 0
DWIDTH 7 0
BBX 7 10 0 0
BITMAP
28
28
00
EE
44
44
3C
04
04
0E
ENDCHAR
STARTCHAR uni04F8
ENCODING 1272
SWIDTH 754 0
DWIDTH 11 0
BBX 9 13 1 0
BITMAP
2400
2400
0000
E380
4100
4100
4100
7900
4D00
4500
4500
4D00
FB80
ENDCHAR
STARTCHAR uni04F9
ENCODING 1273
SWIDTH 617 0
DWIDTH 9 0
BBX 9 10 0 0
BITMAP
2400
2400
0000
E380
4100
4100
7900
4500
4500
FB80
ENDCHAR
ENDFONT
